<?xml version="1.0" standalone="no"?>
<!DOCTYPE svg PUBLIC "-//W3C//DTD SVG 1.1//EN" "http://www.w3.org/Graphics/SVG/1.1/DTD/svg11.dtd" >
<svg xmlns="http://www.w3.org/2000/svg" xmlns:xlink="http://www.w3.org/1999/xlink" version="1.1">
<metadata>
Created by FontForge 20201107 at Thu Aug  8 18:33:10 2019
 By Unknown
Copyright (C) 2019 by original authors @ fontello.com
</metadata>
<defs>
<font id="midas" horiz-adv-x="1000" >
  <font-face 
    font-family="midas"
    font-weight="400"
    font-stretch="normal"
    units-per-em="1000"
    panose-1="2 0 5 3 0 0 0 0 0 0"
    ascent="850"
    descent="-150"
    bbox="-1.04348 -155.571 1253 851"
    underline-thickness="0"
    underline-position="10"
    unicode-range="U+E800-F7E3"
  />
<missing-glyph 
 />
    <glyph glyph-name=".notdef" 
 />
    <glyph glyph-name="google-1" unicode="&#xe800;" horiz-adv-x="953" 
d="M953 339q0 -137 -59 -244.5t-164 -167.5q-108 -61 -246 -61q-132 0 -245 66q-109 64 -173 173q-66 113 -66 245t66 245q64 109 173 173q113 66 245 66q96 0 180 -33q81 -32 145 -93l-132 -127q-63 60 -150 72q-82 11 -161.5 -23.5t-128.5 -105.5q-53 -76 -53 -174
q0 -83 41 -154q40 -70 108 -110q70 -42 151 -42q88 0 154 38q54 32 87 85q27 43 34 86h-275v167h462q7 -44 7 -81z" />
    <glyph glyph-name="check" unicode="&#xe801;" 
d="M884 654l45 -45l-563 -563l-22 -21l-23 21l-250 250l45 45l228 -227z" />
    <glyph glyph-name="angle-up" unicode="&#xe802;" 
d="M500 644l23 -21l390 -391l-45 -45l-368 368l-368 -368l-45 45l391 391z" />
    <glyph glyph-name="life-ring" unicode="&#xe807;" 
d="M500 725q102 0 189 -51q85 -50 135 -135q51 -87 51 -189t-51 -189q-50 -85 -135 -135q-87 -51 -189 -51t-189 51q-85 50 -135 135q-51 87 -51 189t51 189q50 85 135 135q87 51 189 51zM500 663q-11 0 -31 -2v-95l10 1q14 2 21 2t21 -2l10 -1v95q-20 2 -31 2zM406 649
q-73 -23 -127 -77.5t-77 -127.5h101q16 34 42.5 60.5t60.5 42.5v102zM594 649v-102q34 -16 60.5 -42.5t42.5 -60.5h102q-23 73 -77.5 127.5t-127.5 77.5zM500 506q-43 0 -78.5 -21t-56.5 -56.5t-21 -78.5t21 -78.5t56.5 -56.5t78.5 -21t78.5 21t56.5 56.5t21 78.5t-21 78.5
t-56.5 56.5t-78.5 21zM190 381q-2 -20 -2 -31t2 -31h94l-1 10q-2 14 -2 21q0 11 2 31h-93zM716 381q0 -3 1 -10q2 -14 2 -21t-2 -21l-1 -10h95q2 20 2 31t-2 31h-95zM201 256q23 -73 77.5 -127.5t127.5 -77.5v102q-34 16 -60.5 42.5t-42.5 60.5h-102zM697 256
q-16 -34 -42.5 -60.5t-60.5 -42.5v-102q73 23 127.5 77.5t77.5 127.5h-102zM469 134v-94q20 -2 31 -2t31 2v94l-10 -1q-14 -2 -21 -2t-21 2z" />
    <glyph glyph-name="life-ring" unicode="&#xe803;" 
d="M500 725q102 0 189 -51q85 -50 135 -135q51 -87 51 -189t-51 -189q-50 -85 -135 -135q-87 -51 -189 -51t-189 51q-85 50 -135 135q-51 87 -51 189t51 189q50 85 135 135q87 51 189 51zM500 663q-11 0 -31 -2v-95l10 1q14 2 21 2t21 -2l10 -1v95q-20 2 -31 2zM406 649
q-73 -23 -127 -77.5t-77 -127.5h101q16 34 42.5 60.5t60.5 42.5v102zM594 649v-102q34 -16 60.5 -42.5t42.5 -60.5h102q-23 73 -77.5 127.5t-127.5 77.5zM500 506q-43 0 -78.5 -21t-56.5 -56.5t-21 -78.5t21 -78.5t56.5 -56.5t78.5 -21t78.5 21t56.5 56.5t21 78.5t-21 78.5
t-56.5 56.5t-78.5 21zM190 381q-2 -20 -2 -31t2 -31h94l-1 10q-2 14 -2 21q0 11 2 31h-93zM716 381q0 -3 1 -10q2 -14 2 -21t-2 -21l-1 -10h95q2 20 2 31t-2 31h-95zM201 256q23 -73 77.5 -127.5t127.5 -77.5v102q-34 16 -60.5 42.5t-42.5 60.5h-102zM697 256
q-16 -34 -42.5 -60.5t-60.5 -42.5v-102q73 23 127.5 77.5t77.5 127.5h-102zM469 134v-94q20 -2 31 -2t31 2v94l-10 -1q-14 -2 -21 -2t-21 2z" />
    <glyph glyph-name="phone-square" unicode="&#xe806;" 
d="M271 756q24 0 45 -16l2 -1l129 -133l-1 -1q21 -19 21 -47.5t-20 -48.5l-62 -62q11 -26 28 -53q26 -42 59 -74q56 -53 128 -88l62 62q20 20 49.5 20t48.5 -20l1 -2l127 -127q20 -19 20 -47.5t-20 -48.5l-99 -99q-22 -19 -51 -25t-57 4h-1q-81 31 -155 74
q-112 64 -200 152.5t-153 198.5q-47 81 -73 156v1q-10 27 -3 55.5t29 49.5l-1 1l98 101l3 2q21 16 46 16zM271 694q-4 0 -7 -3l-97 -99q-8 -6 -10.5 -18.5t0.5 -22.5q24 -69 69 -145q61 -105 143 -187q135 -134 331 -211q27 -9 48 9l98 98q2 2 2 2.5t-2 2.5l-130 129
q-4 5 -5 5t-5 -5l-78 -78l-15 -14l-19 8l-25 12q-31 16 -60 35q-41 27 -73 56l-7 6q-34 32 -63 76q-21 31 -37 64l-12 28l-6 19l92 92q3 3 3 5l-1 2l-128 131q-3 3 -6 3z" />
    <glyph glyph-name="phone-square" unicode="&#xe804;" 
d="M271 756q24 0 45 -16l2 -1l129 -133l-1 -1q21 -19 21 -47.5t-20 -48.5l-62 -62q11 -26 28 -53q26 -42 59 -74q56 -53 128 -88l62 62q20 20 49.5 20t48.5 -20l1 -2l127 -127q20 -19 20 -47.5t-20 -48.5l-99 -99q-22 -19 -51 -25t-57 4h-1q-81 31 -155 74
q-112 64 -200 152.5t-153 198.5q-47 81 -73 156v1q-10 27 -3 55.5t29 49.5l-1 1l98 101l3 2q21 16 46 16zM271 694q-4 0 -7 -3l-97 -99q-8 -6 -10.5 -18.5t0.5 -22.5q24 -69 69 -145q61 -105 143 -187q135 -134 331 -211q27 -9 48 9l98 98q2 2 2 2.5t-2 2.5l-130 129
q-4 5 -5 5t-5 -5l-78 -78l-15 -14l-19 8l-25 12q-31 16 -60 35q-41 27 -73 56l-7 6q-34 32 -63 76q-21 31 -37 64l-12 28l-6 19l92 92q3 3 3 5l-1 2l-128 131q-3 3 -6 3z" />
    <glyph glyph-name="euro" unicode="&#xe805;" 
d="M563 725q62 0 119 -28q55 -27 97 -76l-48 -41q-34 40 -77.5 61.5t-90.5 21.5q-54 0 -102.5 -28t-84.5 -77.5t-52 -113.5h270v-63h-280q-1 -10 -1 -31t1 -31h280v-63h-270q16 -64 52 -113.5t84.5 -77t102.5 -27.5q48 0 91 21.5t77 61.5l48 -41q-42 -49 -97 -76
q-57 -29 -119 -29q-73 0 -137 38q-62 35 -105.5 99t-60.5 144h-72v63h64q-2 20 -2 31t2 31h-64v63h72q17 80 60.5 144t105.5 100q64 37 137 37z" />
    <glyph glyph-name="rmb" unicode="&#xf38a;" 
d="M225 694h74l201 -323l201 323h74l-214 -344h127v-62h-157v-63h157v-62h-157v-157h-62v157h-156v62h156v63h-156v62h127z" />
    <glyph glyph-name="rmb" unicode="&#xf253;" 
d="M225 694h74l201 -323l201 323h74l-214 -344h127v-62h-157v-63h157v-62h-157v-157h-62v157h-156v62h156v63h-156v62h127z" />
    <glyph glyph-name="rmb" unicode="&#xe808;" 
d="M225 694h74l201 -323l201 323h74l-214 -344h127v-62h-157v-63h157v-62h-157v-157h-62v157h-156v62h156v63h-156v62h127z" />
    <glyph glyph-name="creative-commons-1" unicode="&#xe809;" 
d="M500 725q102 0 189 -51q85 -50 135 -135q51 -87 51 -189t-51 -189q-50 -85 -135 -135q-87 -51 -189 -51t-189 51q-85 50 -135 135q-51 87 -51 189t51 189q50 85 135 135q87 51 189 51zM500 663q-85 0 -158 -43q-70 -41 -112 -112q-42 -73 -42 -158t42 -158
q42 -70 112 -112q73 -42 158 -42t158 42q71 42 112 112q43 73 43 158t-43 158q-41 71 -112 112q-73 43 -158 43zM375 475q38 0 66 -27.5t28 -66.5h-63q0 14 -9 23t-22 9t-22 -9t-9 -23v-62q0 -13 9 -22t22.5 -9t22 9t8.5 22h63q0 -39 -28 -66.5t-66 -27.5t-66 27.5t-28 66.5
v62q0 39 28 66.5t66 27.5zM625 475q38 0 66 -27.5t28 -66.5h-63q0 14 -9 23t-22 9t-22 -9t-9 -23v-62q0 -13 9 -22t22.5 -9t22 9t8.5 22h63q0 -39 -28 -66.5t-66 -27.5t-66 27.5t-28 66.5v62q0 39 28 66.5t66 27.5z" />
    <glyph glyph-name="comment-o" unicode="&#xe80a;" 
d="M94 663h31h781v-625h-299l-84 -86l-23 -21l-22 21l-85 86h-299v625zM156 600v-500h263l10 -9l71 -71l71 71l10 9h263v500h-688zM281 506h438v-62h-438v62zM281 381h438v-62h-438v62zM281 256h313v-62h-313v62z" />
    <glyph glyph-name="check-circle-o" unicode="&#xe80b;" 
d="M500 756q81 0 153.5 -30t127.5 -85l-44 -44q-45 45 -105 71q-63 26 -132 26q-94 0 -174 -47q-78 -45 -123 -123q-47 -80 -47 -174t47 -174q45 -78 123 -123q80 -47 174 -47t174 47q78 45 123 123q47 80 47 174q0 36 -10 78l51 50q21 -57 21 -128q0 -111 -55 -205
q-54 -92 -146 -146q-94 -55 -205 -55t-205 55q-92 54 -146 146q-55 94 -55 205t55 205q54 92 146 146q94 55 205 55zM853 623l45 -45l-375 -375l-23 -22l-179 178l45 45l134 -134z" />
    <glyph glyph-name="info-circle" unicode="&#xe80c;" 
d="M500 756q110 0 205 -55q92 -54 146 -146q55 -95 55 -205t-55 -205q-54 -92 -146 -146q-95 -55 -205 -55t-205 55q-92 54 -146 146q-55 95 -55 205t55 205q54 92 146 146q95 55 205 55zM500 694q-93 0 -174 -47q-77 -46 -123 -123q-47 -81 -47 -174t47 -174
q46 -77 123 -123q81 -47 174 -47t174 47q77 46 123 123q47 81 47 174t-47 174q-46 77 -123 123q-81 47 -174 47zM469 538h62v-63h-62v63zM469 413h62v-250h-62v250z" />
    <glyph glyph-name="cog" unicode="&#xe80d;" 
d="M412 756h26h150l23 -118q45 -18 81 -48l91 32l25 7l12 -22l76 -130l-89 -78l2 -16q4 -22 4 -33t-4 -33l-2 -16l89 -78l-76 -130l-12 -22l-25 8l-91 31q-36 -30 -81 -48l-23 -118h-176l-23 118q-45 18 -81 48l-91 -31l-25 -8l-12 22l-63 108l-12 22l18 17l70 61l-2 12
q-3 24 -3 37t3 37l2 12l-70 61l-18 17l12 22l63 108l12 22l25 -7l91 -32q36 30 81 48l18 93zM463 694l-16 -81l-4 -19l-17 -6q-52 -16 -95 -54l-14 -13l-96 33l-37 -63l62 -56l15 -12l-5 -18q-6 -27 -6 -55t6 -55l5 -18l-15 -12l-62 -56l37 -63l96 33l14 -13q43 -38 95 -54
l17 -6l20 -100h74l20 100l17 6q52 16 95 54l14 13l96 -33l37 63l-62 56l-14 12l4 18q6 27 6 55t-6 55l-5 18l15 12l62 56l-37 63l-96 -33l-14 13q-43 38 -95 54l-17 6l-20 100h-74zM500 506q42 0 78 -21t57 -57t21 -78t-21 -78t-57 -57t-78 -21t-78 21t-57 57t-21 78t21 78
t57 57t78 21zM500 444q-39 0 -66.5 -27.5t-27.5 -66.5t27.5 -66.5t66.5 -27.5t66.5 27.5t27.5 66.5t-27.5 66.5t-66.5 27.5z" />
    <glyph glyph-name="cogs" unicode="&#xe80e;" 
d="M672 772h62v-44q39 -7 71 -29l29 29l44 -44l-29 -29q22 -32 29 -71h44v-62h-44q-7 -39 -29 -71l30 -33l-46 -43l-29 32q-33 -22 -70 -29v-44h-62v44q-40 8 -70 30l-33 -34l-45 45l34 33q-22 30 -30 70h-44v62h44q7 37 29 70l-32 29l43 46l33 -30q32 22 71 29v44zM703 668
q-31 0 -57.5 -15.5t-42 -42t-15.5 -57.5t15.5 -57.5t42 -42t57.5 -15.5t57.5 15.5t42 42t15.5 57.5t-15.5 57.5t-42 42t-57.5 15.5zM298 484l22 -57q30 7 52 7t52 -7l22 57l58 -24l-23 -56q46 -27 73 -73l56 23l24 -58l-57 -22q7 -30 7 -52t-7 -52l57 -22l-24 -58l-56 23
q-27 -46 -73 -73l23 -56l-58 -24l-22 56q-30 -7 -52 -7t-52 7l-22 -56l-58 24l23 56q-46 27 -73 73l-56 -23l-24 58l56 22q-7 30 -7 52t7 52l-56 22l24 58l56 -23q27 46 73 73l-23 56zM372 372q-41 0 -75.5 -20t-54.5 -54.5t-20 -75.5t20 -75.5t54.5 -54.5t75.5 -20t75.5 20
t54.5 54.5t20 75.5t-20 75.5t-54.5 54.5t-75.5 20z" />
    <glyph glyph-name="gift" unicode="&#xe80f;" 
d="M375 694q37 0 70 -25q23 -18 46 -51q2 -3 5 -8l4 -6q3 4 9 14q23 33 46 51q33 25 70.5 25t65.5 -28t28 -66q0 -16 -6 -31h162v-188h-31v-406h-688v406h-31v188h162q-6 20 -6 31q0 38 28 66t66 28zM375 631q-13 0 -22 -8.5t-9 -22t9 -22.5t22 -9h72l-2 4q-2 5 -5 9
q-16 22 -33 35.5t-32 13.5zM625 631q-15 0 -32 -13.5t-32 -35.5q-3 -3 -5 -7l-3 -6h72q14 0 22.5 9t8.5 22.5t-8.5 22t-22.5 8.5zM188 506v-62h281v31h62v-31h282v62h-625zM219 381v-343h250v312h62v-312h250v343h-562z" />
    <glyph glyph-name="cart-arrow-down" unicode="&#xe810;" 
d="M125 631h69q22 0 39 -13t22 -34l82 -328h390l75 282h65l-81 -298q-5 -20 -21.5 -33t-37.5 -13h-390q-22 0 -39 13t-22 34l-82 328h-69q-13 0 -22 9t-9 22t9 22t22 9zM688 194q38 0 65.5 -28t27.5 -66t-27.5 -66t-65.5 -28t-66 28t-28 66t27.5 66t66.5 28zM406 194
q39 0 66.5 -28t27.5 -66t-27.5 -66t-66.5 -28t-66 27.5t-27 66t27.5 66.5t65.5 28zM500 631h63v-156h93l-125 -125l-125 125h94v156zM406 131q-13 0 -22 -9t-9 -22t9 -22t22 -9t22.5 9t9.5 22t-9 22t-23 9zM688 131q-14 0 -23 -9t-9 -22t9 -22t23 -9t22.5 9t8.5 22t-9 22
t-22 9z" />
    <glyph glyph-name="home" unicode="&#xe811;" 
d="M500 769l23 -21l406 -407l-45 -45l-40 40v-361h-281v313h-125v-313h-282v361l-40 -40l-45 45l407 407zM500 680l-281 -281v-361h156v312h250v-312h156v361z" />
    <glyph glyph-name="cart-plus" unicode="&#xe812;" 
d="M125 631h69q22 0 39 -13t22 -34l82 -328h390l75 282h65l-81 -298q-5 -20 -21.5 -33t-37.5 -13h-390q-22 0 -39 13t-22 34l-82 328h-69q-13 0 -22 9t-9 22t9 22t22 9zM688 194q38 0 65.5 -28t27.5 -66t-27.5 -66t-65.5 -28t-66 28t-28 66t27.5 66t66.5 28zM406 194
q39 0 66.5 -28t27.5 -66t-27.5 -66t-66.5 -28t-66 27.5t-27 66t27.5 66.5t65.5 28zM500 631h63v-93h93v-63h-93v-94h-63v94h-94v63h94v93zM406 131q-13 0 -22 -9t-9 -22t9 -22t22 -9t22.5 9t9.5 22t-9 22t-23 9zM688 131q-14 0 -23 -9t-9 -22t9 -22t23 -9t22.5 9t8.5 22
t-9 22t-22 9z" />
    <glyph glyph-name="refresh" unicode="&#xe813;" 
d="M500 725q83 0 156 -34t125 -94v97h63v-219h-219v63h123q-43 57 -107 91q-67 34 -141 34q-99 0 -178 -56q-77 -54 -112 -144l-58 24q28 70 79.5 124t119.5 83q71 31 149 31zM790 237l58 -24q-28 -70 -79.5 -124t-119.5 -83q-71 -31 -149 -31q-83 0 -157 35q-71 34 -124 93
v-97h-63v219h219v-62h-124q44 -58 108 -91q66 -34 141 -34q66 0 125 26q57 24 99.5 69t65.5 104z" />
    <glyph glyph-name="eye" unicode="&#xe814;" 
d="M500 600q73 0 148 -24q64 -20 127 -57q51 -29 99 -67q34 -28 64 -57l23 -24l19 -21l-40 -42q-27 -27 -59 -53q-44 -36 -91 -65q-59 -35 -117 -57q-70 -26 -138 -31q-22 -2 -34 -2t-33 2h-3q-68 5 -138 31q-58 22 -117 57q-47 29 -91 65q-32 26 -59 53l-21 22l-18 20
l18 21l23 24q30 29 64 57q49 38 99 67q64 37 127 57q75 24 148 24zM500 538q-90 0 -189 -45h1q-31 -51 -31 -112q0 -56 25.5 -103.5t70.5 -77.5t99 -36q8 -1 23.5 -1t23.5 1h1v0q54 6 99 36t70.5 77.5t25.5 103.5q0 59 -31 113q-99 44 -188 44zM500 475q39 0 66.5 -27.5
t27.5 -66.5t-27.5 -66t-66.5 -27t-66.5 27.5t-27.5 65.5t27.5 66t66.5 28zM227 446q-63 -42 -117 -96q73 -73 152 -118q-43 66 -43 149q0 31 8 65zM773 446q8 -34 8 -65q0 -83 -43 -149q79 45 152 118q-54 54 -117 96z" />
    <glyph glyph-name="map-marker" unicode="&#xe815;" 
d="M500 756q76 0 142 -38q63 -38 101 -101q38 -66 38 -142q0 -31 -12 -70q-10 -32 -30 -79q-35 -80 -87 -168q-39 -68 -87 -141l-65 -97l-65 97q-48 73 -87 141q-52 88 -87 168q-20 47 -30 79q-12 39 -12 70q0 76 38 142q38 63 101 101q66 38 142 38zM500 694
q-60 0 -110 -29.5t-79.5 -79.5t-29.5 -110q0 -19 9.5 -52t26.5 -72q13 -32 36 -74q13 -25 42 -75l7 -13q57 -96 98 -156q48 70 98 156q55 94 85 162q17 38 26.5 71.5t9.5 52.5q0 60 -29.5 110t-79.5 79.5t-110 29.5zM500 538q26 0 44.5 -18.5t18.5 -44.5t-18.5 -44
t-44.5 -18t-44 18t-18 44t18.5 44.5t43.5 18.5z" />
    <glyph glyph-name="headphones" unicode="&#xe816;" 
d="M500 694q93 0 174 -47q77 -46 123 -123q47 -81 47 -174v-250q0 -38 -28 -66t-66 -28h-94v282h125v62q0 77 -37.5 141.5t-102 102t-141.5 37.5t-141.5 -37.5t-102 -102t-37.5 -141.5v-62h125v-282h-94q-38 0 -66 28t-28 66v250q0 93 47 174q46 77 124 123q80 47 173 47z
M219 225v-125q0 -13 9 -22t22 -9h31v156h-62zM719 225v-156h31q14 0 22.5 9t8.5 22v125h-62z" />
    <glyph glyph-name="comments" unicode="&#xe817;" 
d="M63 694h31h594v-500h-302l-148 -118l-50 -41v159h-125v500zM125 631v-375h125v-91l106 84l8 7h261v375h-500zM750 569h188v-500h-125v-159l-199 159h-291l78 62h235l114 -91v91h125v375h-125v63z" />
    <glyph glyph-name="list-alt" unicode="&#xe818;" 
d="M321 685l45 -45l-125 -125l-22 -21l-23 21l-62 63l45 45l40 -41zM469 631h406v-62h-406v62zM321 435l45 -45l-125 -125l-22 -21l-23 21l-62 63l45 45l40 -41zM469 381h406v-62h-406v62zM321 185l45 -45l-125 -125l-22 -21l-23 21l-62 63l45 45l40 -41zM469 131h406v-62
h-406v62z" />
    <glyph glyph-name="list-ol" unicode="&#xe819;" 
d="M187 756h13h50v-218h-62v141q-14 -8 -22 -11q-14 -5 -28 -5v62q9 0 25 11l14 10zM344 663h531v-63h-531v63zM203 475q32 0 55 -23t23 -55q0 -12 -6 -25t-17 -22l1 -1l-4 -3l-27 -27h53v-63h-156v51l10 9l84 81q0 5 -5.5 10.5t-10.5 5.5t-10 -5.5t-5 -10.5v-16h-63v16
q0 32 23 55t55 23zM344 381h531v-62h-531v62zM125 194h94h31v-46l-4 -8l-13 -21q48 -23 48 -66q0 -32 -23 -55t-55 -23h-78v63h78q5 0 10.5 5t5.5 10t-5.5 10.5t-10.5 5.5h-47v43l4 7l8 12h-43v63zM344 100h531v-62h-531v62z" />
    <glyph glyph-name="clone-1" unicode="&#xe81a;" 
d="M906 850q39 0 66.5 -27.5t27.5 -66.5v-625q0 -38 -27.5 -65.5t-66.5 -27.5h-93v-94q0 -39 -27.5 -66.5t-66.5 -27.5h-625q-39 0 -66.5 27.5t-27.5 66.5v625q0 39 27.5 66.5t66.5 27.5h94v93q0 39 27.5 66.5t65.5 27.5h625zM707 -56q5 0 8.5 3t3.5 8v83h-438
q-38 0 -65.5 27.5t-27.5 65.5v438h-82q-5 0 -8.5 -3.5t-3.5 -8.5v-602q0 -5 3.5 -8t8.5 -3h601zM895 131q4 0 7.5 3.5t3.5 8.5v602q0 5 -3 8t-8 3h-602q-5 0 -8.5 -3.5t-3.5 -7.5v-602q0 -4 4 -8t8 -4h602z" />
    <glyph glyph-name="plus-square-o" unicode="&#xe81b;" 
d="M156 694h32h656v-688h-688v688zM219 631v-562h562v562h-562zM469 506h62v-125h125v-62h-125v-125h-62v125h-125v62h125v125z" />
    <glyph glyph-name="rotate-left" unicode="&#xe81c;" 
d="M469 756h31v-62h-31v62zM401 743l18 -60l-24 -7l-26 -10h-1l-26 57l3 1l1 1h1l26 10h1l1 1zM625 725h31h219v-62h-114q68 -57 106 -137q39 -83 39 -176q0 -110 -56 -204q-54 -92 -146 -146q-94 -56 -204 -56t-204 56q-92 54 -146 146q-56 94 -56 204v31h62v-31
q0 -93 47 -173q46 -78 124 -124q80 -47 173 -47t173 47q78 46 124 124q47 80 47 173q0 90 -43 167q-41 73 -113 121v-163h-63v250zM286 694l33 -53l-14 -10l-2 -1l-18 -13l-2 -1l-7 -6l-41 47l9 8h2l22 17h1l1 1zM190 613l48 -41l-7 -8v-1l-14 -19l-2 -2l-9 -14l-53 34
l12 18v1l19 23zM124 506l57 -26v-1l-10 -25l-7 -25l-59 17l6 26l1 2v1l10 25v1l1 1z" />
    <glyph glyph-name="tv" unicode="&#xe81d;" horiz-adv-x="1250" 
d="M1156 850q39 0 66.5 -27.5t27.5 -66.5v-625q0 -38 -27.5 -65.5t-66.5 -27.5h-458v-63h312q26 0 44.5 -18.5t18.5 -44.5t-18.5 -44t-44.5 -18h-750q-26 0 -44 18t-18 44t18 44.5t44 18.5h313v63h-479q-39 0 -66.5 27.5t-27.5 65.5v625q0 39 27.5 66.5t66.5 27.5h1062z
M1125 163v562h-1000v-562h1000z" />
    <glyph glyph-name="play" unicode="&#xec2c;" horiz-adv-x="875" 
d="M829 431l-688 406q-28 17 -61.5 12t-55.5 -28q-24 -26 -24 -65v-812q0 -36 22.5 -61.5t55.5 -31.5t63 12l688 406q30 18 40.5 49.5t0 63t-40.5 49.5z" />
    <glyph glyph-name="check-1" unicode="&#xec2d;" 
d="M340 -8l-325 325q-15 14 -15 35t15 36l70 70q15 15 36 15t35 -15l219 -219l469 469q15 15 35.5 15t35.5 -15l70 -70q15 -15 15 -36t-15 -35l-575 -575q-14 -15 -35 -15t-35 15z" />
    <glyph glyph-name="music" unicode="&#xf001;" 
d="M1000 788v-688q0 -34 -25 -62.5t-68 -45.5t-94 -17t-94 17t-68.5 45.5t-25.5 62.5t25.5 62.5t68.5 45.5t94 17q30 0 62 -8v361l-500 -147v-456q0 -34 -25 -62.5t-68 -45.5t-94 -17t-94 17t-68.5 45.5t-25.5 62.5t25.5 62.5t68.5 45.5t94 17q30 0 62 -8v511q0 20 12 36.5
t32 23.5l625 184q20 6 38.5 0t30.5 -22t12 -37z" />
    <glyph glyph-name="gift-1" unicode="&#xf06b;" 
d="M63 -25v250h375v-313h-313q-26 0 -44 18.5t-18 44.5zM563 -88v313h375v-250q0 -26 -18.5 -44.5t-44.5 -18.5h-312zM938 538q26 0 44 -18.5t18 -44.5v-156q0 -13 -9 -22t-22 -9h-938q-13 0 -22 9t-9 22v156q0 26 18.5 44.5t44.5 18.5h86q-20 35 -20 78q0 46 23 85.5
t62.5 63t86.5 23.5q59 0 106 -32q43 -30 95 -102q52 72 95 102q47 32 106 32q47 0 86.5 -23.5t62.5 -63t23 -85.5q0 -40 -20 -78h83zM301 538h168q-48 71 -80 107q-28 31 -50 42q-15 7 -38 7q-33 0 -55.5 -23t-22.5 -55t22.5 -55t55.5 -23zM703 538q32 0 55 23t23 55t-23 55
t-55 23q-24 0 -39 -7q-22 -11 -50 -42q-31 -36 -79 -107h168z" />
    <glyph glyph-name="twitter-square" unicode="&#xf081;" horiz-adv-x="875" 
d="M781 788q39 0 66.5 -27.5t27.5 -66.5v-688q0 -39 -27.5 -66.5t-66.5 -27.5h-687q-39 0 -66.5 27.5t-27.5 66.5v688q0 39 27.5 66.5t66.5 27.5h687zM686 477q40 31 64 67q-36 -16 -74 -20q20 12 34.5 30t21.5 40q-39 -23 -81 -30q-17 19 -41.5 29.5t-51.5 10.5
q-39 0 -71 -21.5t-47 -56.5q-16 -37 -7 -79q-79 4 -148 40q-68 34 -116 94q-18 -28 -18 -65v0q0 -28 17 -59.5t40 -47.5q-31 1 -58 16v-1q0 -46 29 -81.5t74 -44.5q-27 -7 -58 -2q12 -39 45 -63.5t75 -25.5q-34 -26 -74.5 -40.5t-84.5 -14.5q-11 0 -31 2q89 -58 197 -58
q112 0 199 57q78 51 123 138q42 82 42 170v16z" />
    <glyph glyph-name="facebook-square" unicode="&#xf082;" horiz-adv-x="875" 
d="M875 694v-688q0 -39 -27.5 -66.5t-66.5 -27.5h-166v347h118l17 132h-135v84q0 32 12 46q15 18 53 18h70v118q-12 2 -37 4q-32 2 -65 2q-77 0 -123 -45q-47 -47 -47 -130v-98h-119v-132h119v-346h-384q-39 0 -66.5 27.5t-27.5 66.5v688q0 39 27.5 66.5t66.5 27.5h687
q39 0 66.5 -27.5t27.5 -66.5z" />
    <glyph glyph-name="linkedin" unicode="&#xf08c;" horiz-adv-x="875" 
d="M813 788q25 0 43.5 -19t18.5 -45v-748q0 -26 -18.5 -45t-43.5 -19h-751q-25 0 -43.5 19t-18.5 45v748q0 26 18.5 45t43.5 19h751zM265 38v0v417h-130v-417h130zM200 512q31 0 53 22t22 53t-22 53.5t-53 22.5t-53.5 -22t-22.5 -53.5t22 -53.5t54 -22zM751 38v228
q0 63 -11 102q-14 47 -46 71q-36 26 -99 26q-44 0 -78 -21q-30 -18 -45 -46h-2v57h-124v-417h130v206q0 50 14 74q18 33 64 33q31 0 47 -18q13 -14 17 -42q3 -17 3 -50v-203h130z" />
    <glyph glyph-name="github-square" unicode="&#xf092;" horiz-adv-x="875" 
d="M781 788q39 0 66.5 -27.5t27.5 -66.5v-688q0 -39 -27.5 -66.5t-66.5 -27.5h-687q-39 0 -66.5 27.5t-27.5 66.5v688q0 39 27.5 66.5t66.5 27.5h687zM542 38q64 21 113 67t76 108.5t27 133.5q0 88 -44 162q-43 71 -117.5 112.5t-163.5 41.5t-161 -41.5t-113.5 -113.5
t-41.5 -161q0 -70 27.5 -133t77.5 -109t114 -67q12 -2 17 3t5 13v79l-15 -2q-17 -2 -33 0q-22 2 -37 10q-18 11 -25 31l-4 10q-6 12 -13 20q-9 13 -18 17l-7 5q-6 6 -5.5 10.5t14.5 4.5l9 -2q11 -3 20 -9q13 -9 21 -23q18 -33 50 -35q20 -2 44 8q4 29 21 44q-48 5 -70 13
q-36 12 -54 39q-22 33 -22 91q0 25 8 43q6 15 23 33q-6 11 -7 30q-2 29 10 58q12 4 35 -6q17 -6 37 -18l17 -11q41 11 81.5 11t81.5 -11l17 11q20 12 37 18q23 10 35 6q12 -29 10 -58q-1 -17 -6 -30q17 -20 24 -33q9 -19 9 -43q0 -58 -22 -91q-19 -27 -56 -39
q-22 -8 -70 -13q9 -8 15 -22q7 -17 7 -38l-1 -108q0 -8 5.5 -13t17.5 -3zM350 157q-7 0 -7.5 4t5.5 6q8 0 8 -4t-6 -6zM331 159q0 5 -7 5t-7 -5q0 -2 2 -3.5t6 -0.5q6 0 6 4zM305 161q-1 -1 -3.5 -2t-5 0t-4.5 3t-1 3.5t3.5 2.5t5 0t4.5 -3t1 -4zM281 172q1 1 0.5 3.5
t-2.5 4.5t-4.5 2.5t-3.5 -1.5q-3 -3 1 -8q2 -2 4.5 -2.5t4.5 1.5zM263 190q2 1 2 3.5t-2 4.5q-4 5 -7 2.5t0 -7.5t7 -3zM250 209q2 1 1.5 3t-2 3.5t-3.5 2t-3 -0.5q-3 -3 1 -6.5t6 -1.5zM237 223q2 3 -2.5 5t-5.5 0t0 -3.5t4 -3t4 1.5z" />
    <glyph glyph-name="twitter" unicode="&#xf099;" horiz-adv-x="998" 
d="M897 554q1 -9 1 -27q0 -104 -38 -205q-39 -106 -112 -188q-78 -88 -183 -137q-114 -53 -250 -53q-86 0 -166 23.5t-149 68.5q26 -3 50 -3q70 0 135.5 23t118.5 65q-67 1 -119.5 41t-72.5 101q20 -3 39 -3q30 0 54 7q-47 9 -84 38t-58.5 71.5t-21.5 91.5v3q41 -24 92 -26
q-42 27 -66.5 72.5t-24.5 97.5q0 56 28 104q77 -95 185 -151q111 -57 237 -64q-5 25 -5 47q0 56 27.5 103t74.5 74.5t103 27.5q44 0 83 -17.5t67 -47.5q71 14 130 50q-11 -36 -34.5 -65t-55.5 -48q57 6 118 32q-42 -62 -103 -106z" />
    <glyph glyph-name="facebook" unicode="&#xf09a;" horiz-adv-x="875" 
d="M875 739v-778q0 -20 -14 -34t-34 -14h-223v338h113l17 132h-130v85q0 32 12 46q15 18 53 18h70v118q-12 2 -37 4q-33 2 -65 2q-77 0 -123 -45q-47 -47 -47 -130v-98h-114v-132h114v-339h-419q-20 0 -34 14.5t-14 34.5v778q0 20 14 34.5t34 14.5h779q20 0 34 -14.5
t14 -34.5z" />
    <glyph glyph-name="github" unicode="&#xf09b;" horiz-adv-x="968" 
d="M324 74q0 -3 -3 -5t-7.5 -2.5t-7.5 1.5t-3 5.5t3 5.5t7.5 2t7.5 -2t3 -5zM263 83q2 3 5 4t7.5 -0.5t7 -4t1.5 -5.5t-4.5 -4t-7.5 0t-7 4t-2 6zM350 86q4 1 7.5 -1t3.5 -5q1 -6 -9 -9q-4 -1 -7.5 1t-4 5t2 5.5t7.5 3.5zM478 834q134 0 248 -63q111 -62 176 -169
q67 -111 67 -244q0 -107 -42 -203q-40 -94 -114.5 -163t-171.5 -101q-17 -3 -26 5q-8 7 -8 19l1 163q0 62 -33 91q54 6 81 12q44 10 72 30q34 23 51 62q20 44 20 111q0 38 -13 65q-11 21 -38 50q8 18 10 46q2 43 -15 87q-18 6 -53 -8q-24 -10 -55 -28l-26 -17
q-60 17 -123 17t-123 -17l-26 17q-31 18 -55 28q-35 14 -53 8q-17 -43 -15 -87q1 -26 9 -46q-25 -27 -35 -50q-11 -26 -11 -65q0 -67 19 -111q17 -39 50 -62q28 -19 71 -30q27 -6 80 -12q-25 -23 -32 -66q-33 -16 -65 -13q-49 4 -77 54q-12 20 -31 33q-14 10 -31 14l-13 3
q-21 0 -22 -7q-1 -6 9 -15l10 -8q14 -7 28 -25q10 -14 19 -32l7 -15q10 -30 38 -46q22 -12 55 -16q24 -2 50 1l22 3l1 -120q0 -11 -8 -18q-9 -8 -26 -5q-97 32 -172 101t-117 163q-42 96 -42 203q0 133 64 244q62 107 170 169q110 63 244 63zM190 161q2 2 5 1t5 -3
q5 -7 1 -10q-1 -2 -4.5 -1t-5.5 3t-2.5 5.5t1.5 4.5zM169 177q1 3 8 0.5t5 -7.5q-2 -2 -4.5 -2t-4.5 1q-7 4 -4 8zM232 107q6 6 13 -2q3 -3 3.5 -6.5t-1.5 -5.5t-5.5 -2t-7 3.5t-4 7t1.5 5.5zM210 136q2 1 5.5 0t5.5 -4.5t2 -6.5t-2 -4.5t-5.5 -0.5t-5.5 4.5t-2 7t2 4.5z
" />
    <glyph glyph-name="pinterest" unicode="&#xf0d2;" horiz-adv-x="968" 
d="M969 350q0 -132 -66 -245q-64 -109 -174 -173q-113 -66 -245 -66q-75 0 -143 21q18 29 33 60q20 39 27 67l30 116q12 -24 43.5 -40t67.5 -16q72 0 130 41q57 39 89.5 108t32.5 152q0 79 -40 144q-39 63 -107.5 99.5t-151.5 36.5q-101 0 -176 -42q-69 -39 -107 -107
q-37 -66 -37 -144q0 -56 27 -110q28 -58 71 -78q13 -6 16 7l14 54q2 8 -4 14q-15 20 -25 50.5t-10 60.5q0 54 26.5 102.5t74.5 76.5q51 31 117 31q59 0 105 -25t72 -70t26 -102q0 -64 -20 -115t-55 -79t-78 -28q-23 0 -41.5 12t-27 32t-2.5 44q5 21 18 65q11 35 15 51
q7 27 7 45q0 29 -16 48.5t-45 19.5q-37 0 -62.5 -33.5t-25.5 -84.5q0 -19 4 -38q2 -13 6 -24l4 -9l-25 -106q-26 -111 -31 -135q-12 -48 -2 -139q-90 35 -160 102.5t-108 156.5q-40 91 -40 192q0 132 66 245q64 109 174 173q113 66 244 66t244 -66q110 -64 175 -173
q66 -113 66 -245z" />
    <glyph glyph-name="pinterest-square" unicode="&#xf0d3;" horiz-adv-x="875" 
d="M875 694v-688q0 -39 -27.5 -66.5t-66.5 -27.5h-479q40 67 53 116l30 114q12 -23 43 -39t67 -16q71 0 129 41q56 39 88 107.5t32 150.5q0 78 -39 141t-107 99.5t-150 36.5q-100 0 -174 -42q-69 -38 -107 -106q-36 -65 -36 -143q0 -55 27 -108q28 -57 71 -77
q7 -4 10.5 -2.5t5.5 8.5q2 11 13 54q1 7 -3 14q-15 19 -25.5 49t-10.5 60q0 54 26 102t74 76q51 31 116 31q58 0 104 -25t71.5 -69.5t25.5 -101.5q0 -63 -20 -113t-54.5 -78t-76.5 -28q-23 0 -41.5 12t-26.5 32t-3 42.5t19 66.5q10 34 14 50q7 26 7 43q0 37 -23 56
q-21 17 -51.5 10.5t-50.5 -34.5q-23 -31 -23 -80q0 -19 4 -38q2 -13 6 -25l4 -9l-27 -111q-21 -87 -26 -115q-9 -42 -9 -73q-1 -28 5 -77l4 -2h-173q-39 0 -66.5 27.5t-27.5 66.5v688q0 39 27.5 66.5t66.5 27.5h687q39 0 66.5 -27.5t27.5 -66.5z" />
    <glyph glyph-name="google-plus-square" unicode="&#xf0d4;" horiz-adv-x="875" 
d="M781 788q39 0 66.5 -27.5t27.5 -66.5v-688q0 -39 -27.5 -66.5t-66.5 -27.5h-687q-39 0 -66.5 27.5t-27.5 66.5v688q0 39 27.5 66.5t66.5 27.5h687zM320 155q56 0 98.5 24t66 67.5t23.5 98.5q0 18 -3 33h-185v-67h111q-2 -17 -13 -35q-14 -22 -35 -34q-27 -16 -62 -16
q-33 0 -60.5 17t-44 45.5t-16.5 61.5t16 61.5t44 45t61 16.5q47 0 77 -30l53 51q-54 51 -131 51q-53 0 -98 -26t-71 -71t-26 -98t26 -98t71 -71t98 -26zM750 315v57h-57v56h-57v-56h-56v-57h56v-57h57v57h57z" />
    <glyph glyph-name="google-plus-g" unicode="&#xf0d5;" horiz-adv-x="1250" 
d="M754 404q6 -28 6 -63q0 -106 -45 -189.5t-126 -129.5q-83 -47 -189 -47q-102 0 -189 51q-85 50 -135 135q-51 87 -51 189t51 189q50 85 135 135q87 51 189 51q74 0 139 -26q62 -25 112 -72l-102 -98q-24 24 -57 39q-42 19 -92 19q-63 0 -116.5 -32t-84.5 -86.5
t-31 -118.5t31 -118.5t84.5 -86.5t116.5 -32q68 0 119 30q42 24 68 66q21 33 26 66h-213v129h354zM1116 391h109v-109h-109v-109h-109v109h-109v109h109v109h109v-109z" />
    <glyph glyph-name="linkedin-in" unicode="&#xf0e1;" horiz-adv-x="875" 
d="M196 -25h-181v584h181v-584zM105 639q-28 0 -52.5 14.5t-38.5 38.5t-14 53t14 53t38 38t53 14t53 -14t38 -38t14 -53t-14 -53t-38.5 -38.5t-52.5 -14.5zM875 -25h-181v284q0 47 -4 70q-6 39 -24 60q-23 25 -66 25q-65 0 -90 -46q-19 -35 -19 -104v-289h-181v584h174v-79
h2q20 38 62 64q49 30 110 30q87 0 138 -37q45 -33 63 -99q16 -55 16 -142v-321z" />
    <glyph glyph-name="laptop" unicode="&#xf109;" horiz-adv-x="1250" 
d="M1219 38q13 0 22 -9.5t9 -22.5v-31q0 -34 -17 -62.5t-45.5 -45.5t-62.5 -17h-1000q-34 0 -62.5 17t-45.5 45.5t-17 62.5v31q0 13 9 22.5t22 9.5h468q-1 -23 18 -43t46 -20h118q27 0 45 17t19 46h474zM1125 756v-656h-1000v656q0 39 27.5 66.5t66.5 27.5h812
q39 0 66.5 -27.5t27.5 -66.5zM1000 225v500h-750v-500h750z" />
    <glyph glyph-name="quote-left" unicode="&#xf10d;" horiz-adv-x="928" 
d="M429 314v-214q0 -45 -32 -76t-76 -31h-214q-44 0 -76 31t-31 76v393q0 58 23 111t61 91t91 61t111 23h35q15 0 26 -11t10 -25v-72q0 -14 -10 -25t-26 -10h-35q-59 0 -101 -42t-42 -101v-18q0 -22 16 -38t37 -16h125q45 0 76 -31t32 -76zM929 314v-214q0 -45 -32 -76
t-76 -31h-214q-44 0 -76 31t-31 76v393q0 58 23 111t61 91t91 61t111 23h35q15 0 26 -11t10 -25v-72q0 -14 -10 -25t-26 -10h-35q-59 0 -101 -42t-42 -101v-18q0 -22 16 -38t37 -16h125q45 0 76 -31t32 -76z" />
    <glyph glyph-name="quote-right" unicode="&#xf10e;" horiz-adv-x="928" 
d="M429 671v-392q0 -58 -23 -111t-61 -91t-91 -61t-111 -23h-36q-14 0 -25 11t-11 25v71q0 15 11 25t25 11h36q59 0 101 42t42 101v17q0 23 -16 38t-38 16h-125q-44 0 -76 31t-31 76v214q0 45 31 76t76 32h214q45 0 76 -32t32 -76zM929 671v-392q0 -58 -23 -111t-61 -91
t-91 -61t-111 -23h-36q-14 0 -25 11t-11 25v71q0 15 11 25t25 11h36q59 0 101 42t42 101v17q0 23 -16 38t-38 16h-125q-44 0 -76 31t-31 76v214q0 45 31 76t76 32h214q45 0 76 -32t32 -76z" />
    <glyph glyph-name="angle-down" unicode="&#xf110;" 
d="M132 513l368 -368l368 368l45 -45l-390 -390l-23 -22l-413 412z" />
    <glyph glyph-name="angle-left" unicode="&#xf111;" 
d="M595 716l45 -45l-322 -321l322 -321l-45 -45l-344 344l-21 22l21 23z" />
    <glyph glyph-name="angle-right" unicode="&#xf112;" 
d="M405 716l344 -343l22 -23l-366 -366l-45 45l322 321l-322 321z" />
    <glyph glyph-name="github-alt" unicode="&#xf113;" horiz-adv-x="937" 
d="M364 208q0 -23 -8 -46q-8 -27 -23 -43q-18 -19 -41.5 -19t-40.5 19q-15 16 -24 43q-7 23 -7 46t7 46q9 27 24 43q17 19 40.5 19t41.5 -19q15 -16 23 -43q8 -23 8 -46zM938 307q0 -115 -35 -186q-33 -68 -107 -103q-59 -28 -150 -38q-53 -5 -155 -5h-25q-104 0 -159 5
q-95 9 -156 38q-77 35 -111 103q-40 79 -40 186q0 62 20.5 118.5t60.5 103.5q-15 45 -15 95q0 29 7 52q5 16 22 49q66 0 114 -15.5t98 -54.5q83 19 173 19q86 0 157 -18q50 39 97 54t114 15q16 -32 21 -49q7 -23 7 -52q0 -49 -15 -94q77 -91 77 -223zM812 208q0 44 -17 80.5
t-49 57.5q-34 23 -78 23q-31 0 -90 -8l-19 -3q-41 -7 -88 -7t-88 7l-18 3q-60 8 -92 8q-44 0 -78 -23q-31 -21 -48 -57.5t-17 -80.5q0 -115 96 -163q70 -35 198 -35h94q129 0 198 35q96 47 96 163zM651 316q23 0 41 -19q14 -16 23 -43q7 -23 7 -46t-7 -46q-9 -27 -23 -43
q-18 -19 -41.5 -19t-40.5 19q-15 16 -24 43q-7 23 -7 46t7 46q9 27 24 43q17 19 41 19z" />
    <glyph glyph-name="arrow-down" unicode="&#xf11f;" 
d="M469 725h62v-627l212 212l45 -45l-265 -266l-23 -21l-22 21l-266 266l45 45l212 -212v627z" />
    <glyph glyph-name="arrow-left" unicode="&#xf120;" 
d="M415 638l45 -45l-212 -212h627v-62h-627l212 -212l-45 -45l-266 266l-21 22l21 23z" />
    <glyph glyph-name="arrow-right" unicode="&#xf121;" 
d="M585 638l266 -265l21 -23l-21 -22l-266 -266l-45 45l212 212h-627v62h627l-212 212z" />
    <glyph glyph-name="arrow-up" unicode="&#xf122;" 
d="M500 722l23 -21l265 -266l-45 -45l-212 212v-627h-62v627l-212 -212l-45 45l266 266z" />
    <glyph glyph-name="arrows" unicode="&#xf123;" 
d="M125 725h31h250v-62h-174l268 -268l268 268h-174v62h281v-281h-62v174l-268 -268l268 -268v174h62v-281h-281v63h174l-268 267l-268 -267h174v-63h-281v281h63v-174l267 268l-267 268v-174h-63v281z" />
    <glyph glyph-name="balance-scale" unicode="&#xf12b;" 
d="M500 694q30 0 54 -18t34 -45h225v-62h-44l8 -16l129 -226v-8q0 -42 -21 -78t-57 -57t-78 -21t-78 21t-57 57t-21 78v8l129 226l8 16h-143q-8 -20 -22.5 -35t-34.5 -22v-412h125v-62h-312v62h125v412q-42 15 -57 57h-143l8 -16l129 -226v-8q0 -42 -21 -78t-57 -57t-78 -21
t-78 21t-57 57t-21 78v8l129 226l8 16h-43v62h224q10 27 34 45t54 18zM500 631q-13 0 -22 -8.5t-9 -22t9 -22.5t22.5 -9t22 9t8.5 22.5t-8.5 22t-22.5 8.5zM250 474l-71 -124h142zM750 474l-71 -124h142zM164 288q10 -28 33 -45.5t53 -17.5t53 17.5t33 45.5h-172zM664 288
q10 -28 33 -45.5t53 -17.5t53 17.5t33 45.5h-172z" />
    <glyph glyph-name="bars" unicode="&#xf131;" 
d="M125 631h750v-62h-750v62zM125 381h750v-62h-750v62zM125 131h750v-62h-750v62z" />
    <glyph glyph-name="maxcdn" unicode="&#xf136;" horiz-adv-x="998" 
d="M901 -15h-191l102 474q7 34 -8.5 51.5t-47.5 17.5h-96l-117 -543h-190l116 543h-163l-116 -543h-190l116 543l-87 187h727q58 0 108 -23t84 -65t46 -96.5t0 -110.5z" />
    <glyph glyph-name="html5" unicode="&#xf13b;" horiz-adv-x="750" 
d="M0 788h750l-68 -773l-308 -103l-306 103zM602 538l9 93h-471l25 -284h326l-12 -122l-105 -28l-104 28l-7 74h-93l11 -148l193 -53h2v1l191 52l27 290h-343l-8 97h359z" />
    <glyph glyph-name="css3" unicode="&#xf13c;" horiz-adv-x="937" 
d="M938 788l-125 -719l-437 -157l-376 157l38 185h160l-15 -79l227 -87l262 87l37 189h-651l31 160h652l20 103h-651l32 161h796z" />
    <glyph glyph-name="binoculars" unicode="&#xf145;" 
d="M344 694q43 0 75.5 -26.5t43.5 -67.5h74q11 41 43.5 67.5t75.5 26.5q46 0 79.5 -29.5t41.5 -74.5q46 -11 81 -39.5t52 -69.5v-1l1 -1l71 -199q18 -40 18 -86q0 -60 -29.5 -110t-79.5 -79.5t-110 -29.5q-53 0 -99.5 24t-77.5 66.5t-39 93.5q-12 -13 -29.5 -20.5
t-35.5 -7.5q-37 0 -65 28q-8 -51 -39 -93.5t-77.5 -66.5t-99.5 -24q-60 0 -110 29.5t-79.5 79.5t-29.5 110q0 52 23 96l66 186h1q16 44 53 74q34 28 80 40q8 45 41.5 74.5t79.5 29.5zM344 631q-28 0 -45.5 -17t-17.5 -45v-29l-28 -2q-36 -5 -63.5 -25.5t-41.5 -56.5v-1
l-23 -64q44 22 94 22q67 0 122 -38t80 -99q13 20 34 31.5t45 11.5t45 -11.5t34 -31.5q25 61 80 99t122 38q47 0 95 -23l-24 68q-14 32 -42 54t-63 26l-28 2v29q0 28 -17.5 45t-45.5 17t-45 -17t-17 -45v-31h-188v31q0 28 -17 45t-45 17zM219 350q-47 0 -85 -25t-57 -66
q0 -2 -1 -4q-13 -31 -13 -61q0 -43 21 -78.5t56.5 -56.5t78.5 -21t78.5 21t56.5 56.5t21 78.5t-21 78.5t-57 56.5t-78 21zM781 350q-42 0 -78 -21t-57 -57t-21 -78t21 -78t57 -57t78 -21t78.5 21t57.5 56.5t21 78.5t-21 78.5t-57 56.5t-79 21zM500 256q-13 0 -22 -8.5
t-9 -22t9 -22.5t22.5 -9t22 9t8.5 22.5t-8.5 22t-22.5 8.5z" />
    <glyph glyph-name="bookmark-o" unicode="&#xf150;" 
d="M219 694h31h531v-719l-50 37l-231 174l-231 -174l-50 -37v719zM281 631v-531l219 164l219 -164v531h-438z" />
    <glyph glyph-name="btc" unicode="&#xf15a;" horiz-adv-x="748" 
d="M606 376q72 -17 105 -60q38 -49 30 -135q-7 -72 -43 -116q-34 -41 -96 -60q-54 -18 -140 -22v-133h-95v130q-49 0 -75 1v-131h-94v133h-191l19 113h23q31 -1 43 0q18 1 27 8t11 24v424q-4 21 -16 30t-36 12q-14 1 -53 0h-18v101q146 -1 191 0v155h94v-152q26 1 75 1v151
h95v-155q101 -9 154 -42q63 -39 71 -118q11 -111 -81 -159zM294 587v-189h15q52 -1 82 2q55 6 85 24q39 24 39 69t-37 69q-30 19 -83 24q-29 3 -81 1h-20zM294 96h19q61 -1 97 2q63 6 99 27q45 26 45 75.5t-44 75.5q-35 20 -98 26q-35 4 -96 2h-22v-208z" />
    <glyph glyph-name="calendar" unicode="&#xf15c;" 
d="M281 725h63v-31h312v31h63v-31h125v-688h-688v688h125v31zM219 631v-62h562v62h-62v-31h-63v31h-312v-31h-63v31h-62zM219 506v-437h562v437h-562zM406 444h63v-63h-63v63zM531 444h63v-63h-63v63zM656 444h63v-63h-63v63zM281 319h63v-63h-63v63zM406 319h63v-63h-63v63
zM531 319h63v-63h-63v63zM656 319h63v-63h-63v63zM281 194h63v-63h-63v63zM406 194h63v-63h-63v63zM531 194h63v-63h-63v63z" />
    <glyph glyph-name="youtube" unicode="&#xf167;" horiz-adv-x="1125" 
d="M1074 608q10 -37 15 -104q5 -48 6 -107l1 -48l-1 -48q-1 -58 -6 -106q-5 -67 -15 -104q-10 -34 -35 -59t-60 -35q-37 -10 -145 -15q-77 -5 -182 -6l-89 -1l-90 1q-105 1 -182 6q-108 5 -144 15t-61 35t-34 59q-10 37 -16 104q-4 48 -6 106l-1 48l1 48q2 59 6 107
q6 67 16 104q9 34 34 59.5t60 35.5q37 10 145 15q77 5 182 6l90 1l89 -1q105 -1 182 -6q108 -5 145 -15q35 -10 60 -35t35 -60zM453 191l279 158l-279 159v-317z" />
    <glyph glyph-name="xing" unicode="&#xf168;" horiz-adv-x="750" 
d="M318 440q-1 -1 -6 -10q-58 -104 -131 -231q-15 -25 -35 -25h-127q-11 0 -16.5 9t0.5 19l134 237q1 0 1 0.5t-1 0.5l-85 148q-7 11 -1.5 19t17.5 8h127q21 0 36 -24zM747 760l-281 -494v-1l179 -325q6 -11 1 -19.5t-18 -8.5h-127q-23 0 -35 24l-181 329l283 499
q14 24 34 24h129q11 0 16.5 -9t-0.5 -19z" />
    <glyph glyph-name="xing-square" unicode="&#xf169;" horiz-adv-x="875" 
d="M781 788q39 0 66.5 -27.5t27.5 -66.5v-688q0 -39 -27.5 -66.5t-66.5 -27.5h-687q-39 0 -66.5 27.5t-27.5 66.5v688q0 39 27.5 66.5t66.5 27.5h687zM274 225q15 0 25 17l98 173l-63 108q-9 17 -25 17h-91q-8 0 -12 -6t0 -14l62 -105v-1l-96 -169q-4 -7 -0.5 -13.5
t11.5 -6.5h91zM703 643q4 7 0.5 13.5t-11.5 5.5h-92q-15 0 -24 -17l-202 -356l129 -235q9 -17 25 -17h91q9 0 12.5 6t-0.5 14l-128 233z" />
    <glyph glyph-name="dropbox" unicode="&#xf16b;" horiz-adv-x="1031" 
d="M516 623l-257 -165l257 -164l-257 -165l-259 166l258 165l-258 163l258 165zM257 77l258 165l258 -165l-258 -165zM516 295l258 165l-258 163l257 165l258 -165l-258 -165l258 -164l-258 -165z" />
    <glyph glyph-name="stack-overflow" unicode="&#xf16c;" horiz-adv-x="750" 
d="M568 243l-16 -77l-382 81l16 76zM667 413l-49 -61l-300 251l50 60zM606 335l-32 -71l-354 165l32 71zM512 788l233 -314l-63 -46l-233 313zM552 147v-78h-391v78h391zM629 -9v234h78v-313h-702v313h78v-234h546z" />
    <glyph glyph-name="instagram" unicode="&#xf16d;" horiz-adv-x="875" 
d="M438 575q61 0 112.5 -30.5t81.5 -82t30 -112.5t-30 -112.5t-81.5 -81.5t-112.5 -30t-112.5 30t-82 81.5t-30.5 112.5t30.5 112.5t82 82t112.5 30.5zM438 204q39 0 72.5 20t53.5 53.5t20 73t-19.5 73t-53.5 53t-73.5 19.5t-73 -19.5t-53 -53t-19.5 -73t19.5 -73.5
t53 -53.5t73.5 -19.5zM724 584q0 -22 -15.5 -37.5t-37.5 -15.5t-37 15.5t-15 37.5t15 37t37 15t37.5 -15t15.5 -37zM872 531q3 -55 3 -181t-3 -180q-2 -57 -17 -99q-17 -48 -53.5 -84.5t-84.5 -53.5q-42 -15 -99 -17q-54 -4 -180.5 -4t-180.5 4q-57 2 -99 17q-48 17 -84 53
t-53 85q-16 42 -18 99q-3 54 -3 180.5t3 180.5q2 57 17 99q17 48 54 84t85 53q41 15 98 18q54 3 180.5 3t180.5 -3q57 -3 99 -18q48 -17 84.5 -53t53.5 -84q15 -42 17 -99zM779 92q13 33 17 107q2 42 1 121v60q1 80 -1 122q-4 74 -17 106q-11 29 -32.5 50.5t-50.5 32.5
q-33 13 -107 17q-42 2 -121 1h-60q-80 1 -122 -1q-74 -4 -106 -17q-29 -11 -50.5 -32.5t-32.5 -50.5q-13 -32 -17 -106q-2 -42 -1 -122v-60q-1 -79 1 -121q4 -74 17 -107q11 -29 32.5 -50.5t50.5 -32.5q32 -13 106 -17q42 -2 122 -1h60q79 -1 121 1q74 4 107 17
q29 11 50.5 33t32.5 50z" />
    <glyph glyph-name="flickr" unicode="&#xf16e;" horiz-adv-x="875" 
d="M781 788q39 0 66.5 -27.5t27.5 -66.5v-688q0 -39 -27.5 -66.5t-66.5 -27.5h-687q-39 0 -66.5 27.5t-27.5 66.5v688q0 39 27.5 66.5t66.5 27.5h687zM282 227q34 0 62.5 16.5t45 45t16.5 62.5t-16.5 62.5t-45 45t-62.5 16.5t-62.5 -16.5t-45 -45t-16.5 -62.5t17 -62.5
t45 -45t62 -16.5zM593 227q34 0 62 16.5t45 45t17 62.5t-17 62.5t-45 45t-62 16.5t-62 -16.5t-45 -45t-17 -62.5t16.5 -62.5t45 -45t62.5 -16.5z" />
    <glyph glyph-name="adn" unicode="&#xf170;" horiz-adv-x="968" 
d="M484 523l127 -193h-253zM969 350q0 -131 -66 -244q-64 -110 -174 -174q-113 -66 -245 -66t-245 66q-109 64 -173 174q-66 113 -66 244t66 244q64 110 174 174q113 66 244 66t244 -66q110 -64 175 -174q66 -113 66 -244zM774 189l-290 435l-289 -435h59l66 101h329
l66 -101h59z" />
    <glyph glyph-name="bitbucket" unicode="&#xf171;" horiz-adv-x="974" 
d="M32 788h911h6q13 -2 20.5 -12.5t5.5 -23.5l-133 -814q-1 -12 -10.5 -19.5t-20.5 -7.5h-636q-16 1 -28 11t-14 25l-133 805v5q0 13 9.5 22.5t22.5 8.5zM590 207l49 287h-307l55 -287h203z" />
    <glyph glyph-name="tumblr" unicode="&#xf173;" horiz-adv-x="623" 
d="M605 -88q-22 -24 -70 -41q-56 -21 -120 -21q-109 0 -179 49q-58 40 -86 109q-22 55 -22 117v281h-93q-8 0 -14 5.5t-6 13.5v133q0 11 6.5 19.5t16.5 12.5q82 29 126 100q33 56 38 128q3 32 32 32h138q8 0 14 -5.5t6 -13.5v-225h162q8 0 13.5 -6t5.5 -14v-159
q0 -8 -5.5 -14t-13.5 -6h-163v-260q0 -34 15.5 -56t45.5 -26.5t72 12.5q15 7 25 5t14 -16l43 -126q3 -10 3 -15q1 -8 -4 -13z" />
    <glyph glyph-name="tumblr-square" unicode="&#xf174;" horiz-adv-x="875" 
d="M781 788q39 0 66.5 -27.5t27.5 -66.5v-688q0 -39 -27.5 -66.5t-66.5 -27.5h-687q-39 0 -66.5 27.5t-27.5 66.5v688q0 39 27.5 66.5t66.5 27.5h687zM621 76q4 5 0 18l-27 79q-3 8 -9.5 9.5t-14.5 -3.5q-40 -15 -61.5 -2t-21.5 46v163h101q5 0 8.5 3.5t3.5 8.5v100
q0 5 -3.5 8.5t-8.5 3.5h-101v140q0 5 -3.5 9t-8.5 4h-87q-17 0 -19 -20q-4 -46 -24 -81q-27 -44 -79 -62q-7 -2 -10.5 -7.5t-3.5 -12.5v-83q0 -5 3.5 -8.5t8.5 -3.5h58v-176q0 -38 14 -72q17 -44 54 -69q44 -30 112 -30q40 0 75 12q30 11 44 26z" />
    <glyph glyph-name="certificate" unicode="&#xf178;" 
d="M500 756q31 0 56 -18l51 -36l60 -8q31 -4 53 -26t26 -53l1 -2h-1l12 -59l36 -52q18 -24 18 -54.5t-17 -57.5v-1l-37 -53l-8 -58l130 -197h-149l-37 -84l-22 -53l-32 49l-99 148q-19 -9 -40.5 -8.5t-41.5 8.5l-99 -148l-32 -49l-22 53l-36 84h-150l32 48l101 154l-10 53
l-37 52q-18 24 -18 55t17 58v1l37 48l8 62l1 1q7 30 28.5 51.5t51.5 28.5l1 1l61 8l51 36q26 18 56 18zM500 693q-11 0 -19 -6l-63 -45l-73 -10h-1v-1q-11 -3 -20 -11.5t-11 -19.5q-1 0 -1 -1l-10 -74l-44 -57q-7 -11 -7 -23t6 -21l40 -55l5 -6l1 -8l12 -71v-2q2 -9 4 -12
q8 -13 22 -14l78 -10l57 -44q11 -7 23 -7t21 6l55 40l6 5l8 1l71 12h2q10 1 19 10v1l2 1q4 8 5 14l10 77l44 61q7 11 7 23t-6 20l-40 56l-5 6l-13 76v2q-2 11 -9 17.5t-17 7.5l-77 11l-62 45q-9 6 -20 6zM716 217q-21 -16 -45 -19l-2 -1v1l-62 -11l-14 -11l66 -101l22 49
l8 20h75zM284 216l-48 -72h76l7 -20l22 -49l66 100l-13 11l-61 8q-27 3 -49 22z" />
    <glyph glyph-name="apple" unicode="&#xf179;" horiz-adv-x="734" 
d="M615 325v0q-1 -35 14 -71q28 -71 106 -108q-15 -44 -41 -92q-34 -60 -70 -96q-45 -45 -89 -45q-18 0 -37 5q-11 3 -33.5 12t-35.5 12q-22 6 -44 6t-45 -6q-14 -4 -39 -13q-21 -8 -31 -11q-17 -5 -32 -5q-43 -1 -91 46q-38 38 -75 103q-28 51 -44 95q-28 81 -28 159
q0 82 34 144q31 55 84 86q50 29 107 30q20 0 48 -8q16 -4 47 -15q42 -15 53 -15t49 13.5t59 19.5q37 9 66 7q111 -9 165 -87q-98 -61 -97 -166zM504 646q-29 -35 -64 -52.5t-72 -14.5q-3 39 11 76q13 34 39 64q23 28 60.5 47.5t72.5 21.5q7 -77 -47 -142z" />
    <glyph glyph-name="windows" unicode="&#xf17a;" horiz-adv-x="875" 
d="M0 667l359 49v-346h-359v297zM0 33v293h359v-342zM398 -22v348h477v-414zM398 722l477 66v-418h-477v352z" />
    <glyph glyph-name="android" unicode="&#xf17b;" horiz-adv-x="875" 
d="M175 451v-227q0 -22 -15.5 -38t-38.5 -16t-40.5 16t-17.5 38v227q0 21 17.5 37t40 16t38.5 -15.5t16 -37.5zM196 144v350h483v-350q0 -24 -17 -41t-40 -17h-40v-119q0 -25 -17 -40q-15 -14 -37 -14t-37 14q-17 15 -17 40v119h-73v-119q0 -25 -17 -40q-15 -14 -37 -14
t-37 14q-17 15 -17 40v119h-39q-24 0 -41 17t-17 41zM681 513h-487q0 62 34 114t90 80l-37 69q-3 5 -0.5 8.5t7 3.5t6.5 -4l38 -70q50 23 105.5 22.5t105.5 -22.5l38 70q2 4 6.5 4t7 -3.5t-0.5 -8.5l-37 -69q56 -28 90 -80t34 -114zM347 622q0 8 -6 14t-14.5 6t-14 -6
t-5.5 -14t6 -14.5t14 -6.5t14 6.5t6 14.5zM569 622q0 8 -6 14t-14.5 6t-14.5 -6t-6 -14t6 -14.5t14.5 -6.5t14.5 6.5t6 14.5zM754 504q23 0 41 -15.5t18 -37.5v-227q0 -21 -18 -37.5t-40.5 -16.5t-38.5 16t-16 38v227q0 22 15.5 37.5t38.5 15.5z" />
    <glyph glyph-name="linux" unicode="&#xf17c;" horiz-adv-x="875" 
d="M431 609q-1 0 -2 1q-4 1 -4 3q-1 0 1 2q5 2 11 0l2 -2q4 -2 4 -3.5t-2 -2.5t-3.5 -1t-4.5 2zM389 606q-2 0 -4 1t-2 2.5t6 4.5t11 1q2 -2 1 -3t-4 -2l-3 -1l-2 -1q-2 -2 -3 -2zM820 61q31 -34 31 -58q-1 -21 -28 -35q-9 -6 -30 -16q-24 -12 -36 -20q-21 -12 -33 -27
q-21 -24 -45.5 -38.5t-49 -16.5t-45.5 9.5t-33 35.5v0q-3 7 -5 13q-22 -1 -60 5q-33 4 -47 3q-24 -1 -60 -8q-24 -5 -35 -5q-7 -15 -20 -25t-30 -14q-24 -5 -52.5 0t-57.5 20q-16 9 -40 14q-14 3 -41 6q-24 3 -34 5q-29 5 -40 24q-11 22 5 62q3 8 -1 33l-1 7q-2 16 -2 23
q0 15 5 25q10 18 36 28l8 3q19 7 26 13q4 5 12 16q12 17 20 24q-7 48 12 104q30 89 114 189q22 31 32 62q9 27 11 64q0 10 -1 38q-4 62 0 95q7 59 38 91q39 40 116 40q70 0 106 -43q29 -35 38 -98q5 -36 4 -104v-11q-1 -38 19 -75q11 -22 43 -62l3 -4q62 -73 91 -145
q31 -83 7 -155q4 -1 8 -4l6 -3l2 -2q9 -7 14 -20q3 -9 6 -24l1 -6q7 -26 13 -33zM437 680q-9 -23 -6 -43h2q17 -5 24 -9q-3 18 4.5 32t19.5 13.5t18 -18.5t-1 -35q-2 -3 -6 -7l-2 -2l5 -2q17 -6 20 -8q12 15 14.5 37.5t-6.5 42t-26 27.5t-34 0.5t-26 -28.5zM357 702
q-17 0 -26.5 -19.5t-6.5 -44t17 -38.5l13 9v1l-1 1q-8 6 -10 19t1.5 24.5t12 12t14.5 -12.5t4 -26q9 6 20 9q2 27 -10 46t-28 19zM331 583q-12 -9 -7.5 -24.5t27.5 -28.5q8 -4 19.5 -15t19 -14t19.5 -5q16 -1 30 5q9 3 23 12.5t22 11.5q17 5 28.5 15t15.5 21t-1.5 20
t-18.5 15q-10 5 -23.5 9.5t-20.5 8.5q-29 18 -51 18q-16 0 -31 -9q-9 -5 -21 -16l-3 -3q-3 -3 -27 -21zM337 -69q2 17 -13 42q-9 15 -33 45q-27 34 -34 48l-38 69q-20 28 -43 31q-11 2 -18.5 -1t-15.5 -12q-5 -5 -15 -19q-8 -11 -13 -16q-9 -7 -14 -10t-15 -6l-10 -4
q-11 -4 -16 -7q-8 -6 -12 -15q-7 -11 -2 -39l1 -8q2 -13 2 -19q1 -11 -2 -19v-1q-13 -36 -5 -51q5 -10 23 -15q10 -3 38.5 -6.5t43.5 -6.5q25 -5 44 -15q32 -17 65 -20q34 -4 55 8q25 14 27 47zM335 -18q52 -36 115 -29q56 6 108 43l1 5q11 37 12 51l1 11q3 48 8 67
q10 42 42 54q3 29 24 34q19 4 50 -10q28 -13 38.5 -24.5t6.5 -26.5h8q12 39 -60 68q9 33 -1 70q-8 34 -29 68q-18 28 -39 47q-4 0 -3 -3.5t8 -9.5q14 -13 27 -37q18 -30 23 -60q7 -37 -5 -69q-10 3 -21 3q-11 61 -46 126q-18 33 -39 87q-23 57 -34 100q-15 -20 -43 -29
q-7 -2 -19 -11l-12 -7q-22 -12 -44 -11.5t-39 14.5l-9 8q-10 9 -16 12l-4 2q-7 5 -8 6q-2 -42 -24 -101q-13 -33 -41 -93l-12 -26q-26 -62 -27 -120q-45 61 5 161q13 24 17 33.5t0 6.5l-2 -4q-19 -31 -28 -50q-17 -34 -23 -61q-8 -40 1 -69q11 -36 48 -59l13 -8
q17 -11 31 -23q19 -16 31 -32q22 -31 14.5 -48.5t-33.5 -17.5q18 -22 29 -38zM837 4q2 17 -26 48q-7 7 -11 19q-2 7 -5.5 22.5t-6.5 22.5q-4 12 -11 17q-9 8 -20 10q-7 1 -23 0h-1q-13 -15 -34 -24q-24 -12 -40.5 -7.5t-26 20.5t-11.5 37l-2 -1q-18 -10 -26 -41
q-5 -21 -9 -76q-1 -16 -12 -52l-7 -27q-6 -23 -7 -37q-1 -19 5 -34q10 -21 27 -30.5t38.5 -7.5t44 15t41.5 35q14 17 37 31q13 9 40 21q24 12 32 18q14 10 14 21zM339 560q-5 3 -6 8t2 4.5t6 -5.5q2 -3 3 -4q9 -9 15 -14q25 -19 47.5 -19t59.5 20l27 19q2 2 5 6.5t7 4
t1.5 -4.5t-8.5 -9q-15 -13 -28 -20l-8 -4q-17 -8 -26 -11q-16 -6 -29 -6q-26 0 -53 21q-12 10 -15 14z" />
    <glyph glyph-name="dribbble" unicode="&#xf17d;" 
d="M500 834q131 0 244 -66q110 -64 174 -174q66 -113 66 -244t-66 -244q-64 -110 -174 -174q-113 -66 -244 -66t-244 66q-110 64 -174 174q-66 113 -66 244t66 244q64 110 174 174q113 66 244 66zM820 611q-9 -13 -29 -34q-33 -33 -76 -62q-57 -39 -126 -67q12 -23 29 -63
l8 -18q87 11 190 1q56 -6 98 -15q-1 72 -25.5 138.5t-68.5 119.5zM774 659q-76 67 -174 91.5t-197 1.5q25 -33 56 -81q55 -83 98 -162q66 25 120 61q41 27 71 58q18 19 26 31zM324 724q-88 -42 -148.5 -118t-80.5 -172h1q60 0 128 6q133 13 254 45q-44 77 -99 159
q-32 49 -55 80zM86 349q0 -78 29 -150q27 -70 78 -126q53 91 145 166q100 82 207 112q-18 41 -33 70q-127 -38 -275 -52q-78 -7 -148 -7h-2q-1 -4 -1 -13zM246 23q91 -71 204 -84q110 -14 212 29q-8 47 -25 114q-26 102 -64 200q-79 -27 -149 -73q-63 -41 -111 -92
q-44 -48 -67 -94zM731 6q70 48 117 120.5t61 157.5l-3 1q-44 12 -90 18q-87 11 -165 -2q35 -95 59 -193q15 -62 21 -102z" />
    <glyph glyph-name="skype" unicode="&#xf17e;" horiz-adv-x="873" 
d="M830 265q21 -28 33 -62.5t12 -71.5q0 -59 -29.5 -109t-80 -79.5t-109.5 -29.5q-74 0 -133 45q-42 -9 -86 -9q-109 0 -202 55q-91 53 -144 143q-55 94 -55 203q0 39 10 86q-46 59 -46 133q0 60 29.5 110t79.5 79.5t110 29.5q74 0 133 -46q42 9 86 9q109 0 202 -55
q91 -53 144 -143q55 -94 55 -203q0 -36 -9 -85zM449 86q57 0 105 18q52 19 81 56q33 40 33 95q0 66 -58 106q-41 28 -119 45l-31 7q-44 10 -59 15q-24 7 -34.5 16.5t-10.5 26.5q0 22 21.5 33t60.5 11q33 0 58 -13q14 -7 35 -26q15 -14 23 -19q14 -8 31 -8q27 0 43 18t16 44
q0 32 -32 58q-30 24 -80 37.5t-104 13.5t-100 -15q-51 -18 -81 -51q-33 -38 -33 -92.5t27 -88.5q23 -28 71 -47q30 -11 100 -27l42 -11q41 -10 53 -17q19 -12 19 -34.5t-22.5 -37t-59.5 -14.5q-40 0 -70 17q-17 10 -42 36q-17 18 -27 24q-15 11 -33 11q-28 0 -44 -18
q-14 -17 -14 -42q0 -34 32 -63.5t86 -46.5t117 -17z" />
    <glyph glyph-name="foursquare" unicode="&#xf180;" horiz-adv-x="718" 
d="M631 844q57 0 76 -31.5t7 -95.5l-95 -475l-1 -4q-6 -21 -11 -32q-10 -18 -25 -28q-20 -13 -50 -13h-163q-5 0 -7 -1t-6 -5l-256 -297q-13 -15 -35 -17q-16 -2 -29 3q-36 15 -36 59v847q0 20 9 39q11 22 31 35q24 16 58 16h533zM599 700q3 14 -5.5 24t-20.5 10h-428
q-14 0 -23 -10t-9 -22v-662q0 -1 1 -1t2 1q99 118 147 176l28 35q14 16 23 20.5t29 4.5h143q14 0 23 8.5t10 17.5l3 15q17 86 19.5 99.5t-7 24.5t-21.5 11h-177q-17 0 -28.5 11.5t-11.5 29.5v25q0 17 11.5 28.5t28.5 11.5h208q10 0 20.5 8t12.5 17z" />
    <glyph glyph-name="trello" unicode="&#xf181;" horiz-adv-x="873" 
d="M766 788q30 0 55 -15t39.5 -40.5t14.5 -54.5v-656q0 -29 -14.5 -54.5t-39.5 -40.5t-55 -15h-657q-30 0 -55 15t-39.5 40t-14.5 55v656q0 30 14.5 55.5t40 40t55.5 14.5h656zM385 125v0v496q0 22 -15.5 37.5t-37.5 15.5h-161q-22 0 -37.5 -15.5t-15.5 -37.5v-496
q0 -22 15.5 -37t37.5 -15h161q22 0 37 15t16 37zM762 344v277q0 22 -15.5 37.5t-37.5 15.5h-158q-22 0 -37 -15.5t-15 -37.5v-277q0 -22 15 -37.5t37 -15.5h158q22 0 37.5 15.5t15.5 37.5z" />
    <glyph glyph-name="gratipay" unicode="&#xf184;" horiz-adv-x="968" 
d="M484 834q132 0 245 -66q110 -64 174 -174q66 -113 66 -244t-66 -244q-64 -110 -174 -174q-113 -66 -245 -66t-245 66q-109 64 -173 174q-66 113 -66 244t66 244q64 110 174 174q113 66 244 66zM708 392q10 15 15 38q6 28 -2 53q-10 31 -40 50q-37 24 -77 13
q-32 -9 -56 -36q-14 -16 -36.5 -22t-45.5 -0.5t-38 22.5q-24 28 -56 36q-40 11 -78 -13q-29 -19 -39 -50q-8 -25 -3 -54q5 -23 15 -37l221 -298z" />
    <glyph glyph-name="vk" unicode="&#xf189;" horiz-adv-x="1123" 
d="M1065 620q-7 -30 -47 -98q-29 -50 -71 -113q-35 -51 -38 -54q-10 -16 -11 -24q-1 -12 11 -27l14 -15q145 -146 163 -203q7 -24 -4 -36t-36 -12h-115q-21 0 -39 13q-12 9 -41 42q-32 35 -55 58q-77 74 -115 74q-16 0 -22 -6t-8 -26q-1 -14 0 -62v-49q0 -16 -5 -24
q-6 -10 -24 -15t-53 -5q-93 0 -186 54q-95 56 -165 156q-65 91 -111 181q-36 71 -56 133q-15 47 -15 68q0 33 40 33h115q21 0 32 -10t20 -35q27 -79 65 -153q36 -68 71 -111.5t54 -43.5q12 0 16.5 8.5t4.5 35.5v170q-2 32 -12 54q-6 14 -19 30q-8 9 -10 14q-4 7 -4 14
q0 10 8 18.5t21 8.5h181q18 0 25 -10.5t7 -32.5v-228q0 -16 6 -24.5t13 -8.5q10 0 21.5 8t31.5 28q37 41 74 102q26 43 50 93l18 40q14 33 50 33h115q47 0 35 -43z" />
    <glyph glyph-name="weibo" unicode="&#xf18a;" horiz-adv-x="998" 
d="M795 503q7 23 -1.5 44t-28.5 32t-43 6q-15 -4 -25.5 4t-13.5 21t3.5 24.5t21.5 14.5q48 10 89 -13q40 -22 57.5 -65t2.5 -88q-6 -19 -24 -22t-31 10t-7 32zM420 -23q-106 0 -201 32q-99 34 -156 92q-63 63 -63 143q0 64 39 136.5t110 143.5t143 110q68 37 121 38.5
t74 -32.5q22 -37 1 -104q-4 -12 1.5 -14.5t14.5 -0.5l8 3q78 33 138.5 33t84.5 -34q25 -35 0 -100q-5 -12 0 -18q3 -3 16 -7q77 -24 106 -76q27 -48 7 -108t-79 -113q-62 -56 -152 -88q-99 -36 -213 -36zM700 263q-5 54 -49.5 95t-116 61t-153.5 12t-148 -41.5t-101.5 -82.5
t-30.5 -103t50 -95t116 -60.5t153 -11.5t149 42q65 33 100.5 82t30.5 102zM680 781q72 16 141 -8q64 -22 110.5 -73t61.5 -118q17 -70 -6 -141q-6 -17 -19.5 -23t-28.5 -1t-22.5 18t-2.5 30q16 51 5 101q-11 47 -44 83t-79 52q-49 17 -100 6q-17 -4 -29.5 5t-16 24t4 28
t25.5 17zM526 174q-16 -37 -51 -62.5t-78 -33t-83 5t-64 40.5t-28.5 64t12.5 70.5t50 58t73.5 32t79.5 -1.5t66 -37t33.5 -63t-10.5 -73zM358 233q-20 8 -41.5 0.5t-33.5 -26.5t-7 -38t24.5 -28t41.5 -1.5t34 27t6.5 39t-24.5 27.5zM421 259q-8 2 -16 -1t-12 -10.5t-1.5 -14
t9.5 -10t15 -0.5t12.5 10.5t2.5 15t-10 10.5z" />
    <glyph glyph-name="renren" unicode="&#xf18b;" 
d="M418 520q0 -106 -37 -203q-36 -94 -101 -166.5t-150 -113.5q-54 64 -84 143q-30 81 -30 169q0 118 54 222q51 100 143 168t205 87v-306zM498 -134q-125 0 -231 59q87 55 146 130q64 81 85 172q22 -91 86 -172q60 -75 146 -130q-106 -59 -232 -59zM870 37
q-85 41 -150 113.5t-101 166.5q-37 97 -37 203v306q113 -19 205 -87t143 -168q54 -104 54 -222q0 -88 -30 -169q-30 -79 -84 -143z" />
    <glyph glyph-name="pagelines" unicode="&#xf18c;" horiz-adv-x="750" 
d="M750 239q-19 -48 -47 -81q-24 -30 -56 -48q-27 -16 -60 -22q-28 -5 -60 -2q-27 3 -55 11q-23 6 -45 16q-16 7 -31 15l-11 6q-60 -122 -153 -191q-97 -72 -208 -72q-15 0 -21 12t0 23.5t21 11.5q93 1 174 59q78 56 133 156q-85 -33 -156 -12q-104 31 -160 173
q140 58 240 14q68 -31 109 -103q29 72 42 156l-12 -1q-15 -2 -31 -2q-23 0 -44 2q-28 2 -52 9q-29 7 -52 20q-27 14 -47 34q-23 23 -36 54q-15 33 -18 75q42 17 80 21q34 3 65 -5q27 -6 52 -22q21 -13 39 -33q16 -17 29 -38q11 -17 19 -35q6 -14 11 -27l3 -10q2 20 4 63
l2 41l-9 7q-10 8 -21 18q-15 15 -28 30q-17 19 -29 39q-14 24 -22 48q-9 28 -10 55q0 31 10 61q11 33 35 65q44 -15 75 -38q28 -20 46 -47q16 -24 24 -53q6 -24 6 -52q0 -24 -5 -50q-4 -20 -11 -40q-4 -15 -10 -28l-5 -10q1 -2 1 -26.5t-1 -38.5l11 18q14 21 31 39
q25 26 53 42q36 21 75 25q46 5 96 -12q-1 -47 -14 -84q-12 -33 -33 -58q-18 -23 -44 -38q-23 -14 -50 -21q-24 -7 -50 -9q-22 -2 -44 -1q-16 0 -30 2l-12 2q-11 -75 -39 -152l7 7q10 10 21 19q16 13 32 24q21 13 43 22q25 11 50 17q29 5 57 3q31 -2 62 -14q33 -14 64 -39z
" />
    <glyph glyph-name="stack-exchange" unicode="&#xf18d;" horiz-adv-x="875" 
d="M35 201h806v-43q0 -36 -17.5 -66.5t-46.5 -48.5t-64 -18h-37l-170 -175v175h-344q-34 0 -63.5 18t-46.5 48.5t-17 66.5v43zM35 247v166h806v-166h-806zM35 461v166h806v-166h-806zM713 850q34 0 63.5 -17.5t47 -48t17.5 -66.5v-44h-806v44q0 36 17 66.5t46.5 48
t63.5 17.5h551z" />
    <glyph glyph-name="clock-o" unicode="&#xf18f;" 
d="M500 725q102 0 189 -51q85 -50 135 -135q51 -87 51 -189t-51 -189q-50 -85 -135 -135q-87 -51 -189 -51t-189 51q-85 50 -135 135q-51 87 -51 189t51 189q50 85 135 135q87 51 189 51zM500 663q-85 0 -158 -43q-70 -41 -112 -112q-42 -73 -42 -158t42 -158
q42 -70 112 -112q73 -42 158 -42t158 42q71 42 112 112q43 73 43 158t-43 158q-41 71 -112 112q-73 43 -158 43zM469 600h62v-219h157v-62h-219v281z" />
    <glyph glyph-name="close" unicode="&#xf342;" 
d="M226 669l274 -274l274 274l45 -45l-274 -274l274 -274l-45 -45l-274 274l-274 -274l-45 45l274 274l-274 274z" />
    <glyph glyph-name="close" unicode="&#xf191;" 
d="M226 669l274 -274l274 274l45 -45l-274 -274l274 -274l-45 -45l-274 274l-274 -274l-45 45l274 274l-274 274z" />
    <glyph glyph-name="vimeo-square" unicode="&#xf194;" horiz-adv-x="875" 
d="M781 788q39 0 66.5 -27.5t27.5 -66.5v-688q0 -39 -27.5 -66.5t-66.5 -27.5h-687q-39 0 -66.5 27.5t-27.5 66.5v688q0 39 27.5 66.5t66.5 27.5h687zM750 495q4 122 -91 125q-129 4 -176 -146q36 15 61 8q32 -9 27 -52q-3 -33 -42 -94q-28 -45 -46 -57t-31 7.5t-26 75.5
q-11 48 -27 151q-18 106 -90 100q-23 -2 -63 -32q-24 -19 -79 -68l-42 -38l29 -38q42 30 49 30q17 0 31 -25q13 -22 28 -72q10 -31 32 -114l20 -75q38 -101 92 -101q89 0 216 166q123 158 128 249z" />
    <glyph glyph-name="slack" unicode="&#xf198;" horiz-adv-x="875" 
d="M184 235q0 -38 -27 -65t-65 -27t-65 27t-27 65t27 65t65 27h92v-92zM230 235q0 38 27.5 65t65 27t64.5 -27t27 -65v-231q0 -38 -27 -65t-64.5 -27t-65 27.5t-27.5 64.5v231zM322 604q-38 0 -65 27t-27 65t27.5 65t65 27t64.5 -27t27 -65v-92h-92zM322 557q38 0 65 -27
t27 -65t-27 -64.5t-65 -26.5h-230q-38 0 -65 26.5t-27 64.5t27 65t65 27h230zM691 465q0 38 27 65t65 27t65 -27t27 -65t-27 -64.5t-65 -26.5h-92v91zM645 465q0 -38 -27 -64.5t-65 -26.5t-65 26.5t-27 64.5v231q0 38 27 65t65 27t65 -27t27 -65v-231zM553 96q38 0 65 -27
t27 -65t-27 -65t-65 -27t-65 27t-27 65v92h92zM553 143q-38 0 -65 27t-27 65t27 65t65 27h230q38 0 65 -27t27 -65t-27 -65t-65 -27h-230z" />
    <glyph glyph-name="wordpress" unicode="&#xf19a;" 
d="M121 519l198 -543q-69 33 -122 90t-82 129q-30 74 -30 155q0 88 36 169zM781 371q0 -22 -8 -54q-5 -20 -20 -67l-45 -152l-150 447q16 1 33 2l14 2q10 1 14 9.5t-1 16.5t-16 8l-39 -2q-44 -3 -70.5 -3t-70.5 3l-40 2q-10 0 -15 -8t-1.5 -17t14.5 -9l13 -2q16 -1 30 -2
l65 -177l-91 -273l-151 450q16 1 33 2l14 2q10 1 14 9.5t-1 16.5t-16 8l-39 -2q-44 -3 -71 -3h-27q57 86 147 136q93 52 200 52q80 0 153 -29q71 -29 128 -81q-2 1 -6 1q-30 0 -49.5 -22t-19.5 -52q0 -22 11 -46q7 -15 26 -46l3 -5q16 -28 24 -49q11 -32 11 -66zM507 314
l128 -350l3 -6q-69 -24 -138 -24q-60 0 -117 17zM865 549q50 -92 50 -199q0 -113 -57 -210q-55 -94 -149 -149l127 367q31 76 31 149q0 16 -2 42zM984 350q0 -131 -66 -244q-64 -110 -174 -174q-113 -66 -244 -66t-244 66q-110 64 -174 174q-66 113 -66 244t66 244
q64 110 174 174q113 66 244 66t244 -66q110 -64 174 -174q66 -113 66 -244zM962 350q0 125 -63 233q-61 105 -166 166q-108 63 -233 63t-233 -63q-105 -61 -166 -166q-63 -108 -63 -233t63 -233q61 -105 166 -166q108 -63 233 -63t233 63q105 61 166 166q63 108 63 233z" />
    <glyph glyph-name="openid" unicode="&#xf19b;" horiz-adv-x="875" 
d="M530 6l-132 -62q-112 10 -202.5 50t-142.5 101q-53 62 -53 134q0 68 50 129q48 58 133 98.5t191 53.5v-84q-69 -12 -124 -41t-86.5 -69.5t-31.5 -86.5q0 -49 34.5 -92t95 -72t135.5 -38v664l133 65v-750zM875 282l-256 55l71 41q-60 35 -136 48v84q136 -17 235 -77l68 39
z" />
    <glyph glyph-name="yahoo" unicode="&#xf19e;" horiz-adv-x="873" 
d="M492 280l8 -430l-12 2q-37 6 -51 6t-53 -6l-10 -2l8 430q-28 47 -83 144q-82 143 -124 214q-71 120 -133 212q31 -8 65 -8q31 0 66 8q65 -114 207 -346l57 -94l62 100q66 107 101 164q58 98 100 176q29 -8 65.5 -8t67.5 8q-68 -95 -341 -570z" />
    <glyph glyph-name="reddit" unicode="&#xf1a1;" 
d="M394 253q-20 0 -34.5 14t-14.5 34t14.5 34.5t34.5 14.5t34 -14.5t14 -34t-14 -34t-34 -14.5zM984 350q0 -132 -66 -245q-64 -109 -173 -173q-113 -66 -245 -66t-245 66q-109 64 -173 173q-66 113 -66 245t66 245q64 109 173 173q113 66 245 66t245 -66q109 -64 173 -173
q66 -113 66 -245zM726 431q-13 0 -25.5 -5.5t-20.5 -14.5q-34 23 -76 37q-45 14 -93 15l34 153l109 -25q0 -20 14 -34t34 -14t34 14.5t14 34.5t-14 34.5t-34 14.5q-14 0 -26 -7.5t-18 -19.5l-119 26q-4 1 -8 -1t-6 -7l-37 -169q-48 -2 -91 -15.5t-76 -36.5q-20 20 -47 20
q-24 0 -41 -14.5t-22 -35.5t4 -41.5t31 -31.5q-3 -15 -3 -30q0 -51 34.5 -93.5t93.5 -67.5t129 -25t129.5 25t94.5 67.5t35 93.5q0 18 -4 30q22 11 30.5 31.5t3.5 42t-22 35.5t-41 14zM591 204q4 3 8.5 3t8.5 -3.5t4 -8.5t-4 -8q-22 -22 -66 -30q-42 -8 -84 0q-44 8 -66 30
q-3 3 -3 8t3.5 8.5t8 3.5t8.5 -3q16 -17 53.5 -23.5t73.5 -0.5q38 7 55 24zM606 350q21 0 35 -14.5t14 -34.5t-14.5 -34t-34 -14t-34 14.5t-14.5 34t14 34t34 14.5z" />
    <glyph glyph-name="reddit-square" unicode="&#xf1a2;" horiz-adv-x="875" 
d="M553 175q4 -4 4 -9t-4 -9q-23 -23 -71 -32q-44 -8 -89 0q-48 9 -71 32q-4 4 -4 9t4 9t9 4t8 -4q18 -18 58 -25t79 0q42 7 60 25q3 4 8 4t9 -4zM375 280q0 -21 -15 -36t-37 -15t-37 15t-15 36.5t15 37t37 15.5t37 -15.5t15 -37.5zM552 333q22 0 37 -15.5t15 -37t-15 -36.5
t-37 -15t-37 15t-15 36.5t15 37t37 15.5zM875 694v-688q0 -39 -27.5 -66.5t-66.5 -27.5h-687q-39 0 -66.5 27.5t-27.5 66.5v688q0 39 27.5 66.5t66.5 27.5h687q39 0 66.5 -27.5t27.5 -66.5zM680 419q-29 0 -50 -21q-36 25 -82 40t-98 16l36 165l116 -27q0 -21 15.5 -36
t37 -15t36.5 15.5t15 37t-15 36.5t-37 15q-15 0 -27.5 -8t-18.5 -21l-129 29q-4 1 -8 -2t-6 -8l-40 -181q-52 -2 -98 -17t-82 -39q-19 21 -50 21q-26 0 -44 -15t-23.5 -38t4 -45t33.5 -34q-4 -13 -4 -32q0 -55 37 -100.5t101 -72.5t139 -27t139 27t101.5 72.5t37.5 100.5
q0 18 -4 33q23 12 32 34t3.5 44.5t-23.5 37.5t-44 15z" />
    <glyph glyph-name="stumbleupon-circle" unicode="&#xf1a3;" 
d="M500 834q132 0 245 -66q109 -64 173 -173q66 -113 66 -245t-66 -245q-64 -109 -173 -173q-113 -66 -245 -66t-245 66q-109 64 -173 173q-66 113 -66 245t66 245q64 109 173 173q113 66 245 66zM500 488q14 0 24.5 -10.5t10.5 -24.5v-40l44 -21l67 20v46q0 39 -19.5 71.5
t-53.5 51.5t-73 19t-72.5 -19t-53.5 -51.5t-20 -70.5v-211q0 -15 -10 -25t-25 -10t-24.5 10t-9.5 25v89h-112v-91q0 -40 19.5 -73.5t53 -53t73 -19.5t73.5 19.5t53.5 52.5t19.5 72v209q0 14 10.5 24.5t24.5 10.5zM827 246q1 46 1 91h-112v-94q0 -14 -10.5 -24t-24.5 -10
t-24.5 10t-10.5 24v92l-66 -20l-45 21v-91q0 -39 20 -72.5t53.5 -53t73 -19.5t73 19.5t53 53t19.5 73.5z" />
    <glyph glyph-name="stumbleupon" unicode="&#xf1a4;" horiz-adv-x="980" 
d="M982 331v-137q0 -60 -29.5 -110t-79.5 -79.5t-110 -29.5t-110.5 29t-80 79t-29.5 109v137l67 -31l100 30v-138q0 -22 15 -37t37 -15t37.5 15t15.5 37v141h167zM543 444v61q0 21 -15 36.5t-37 15.5t-37 -15.5t-15 -36.5v-314q0 -58 -29.5 -108t-80 -79t-110 -29t-110 29.5
t-80 79.5t-29.5 110v137h168v-134q0 -22 15 -37.5t37 -15.5t37 15.5t15 37.5v317q0 57 30 105.5t80.5 77t109 28.5t108.5 -28.5t80 -77.5t30 -107v-69l-100 -30z" />
    <glyph glyph-name="delicious" unicode="&#xf1a5;" horiz-adv-x="875" 
d="M872 717q3 -10 3 -23v-688q0 -39 -27.5 -66.5t-66.5 -27.5h-687q-12 0 -23 3q-22 6 -40 22l-7 6q-15 16 -21 40q-3 11 -3 23v688q0 39 27.5 66.5t66.5 26.5h687q12 0 24 -3q2 0 7 -2l3 -1q6 -1 11 -5l8 -4q4 -4 6 -5q8 -6 14 -14t9 -13l3 -5l3 -9zM813 6v344h-375v375
h-344q-13 0 -22 -9t-9 -22v-344h375v-375h343q13 0 22.5 9t9.5 22z" />
    <glyph glyph-name="digg" unicode="&#xf1a6;" 
d="M160 514v149h99v-490h-259v341h160zM160 253v180h-61v-180h61zM740 514h260v-476h-260v79h160v56h-160v341zM900 253v180h-60v-180h60zM440 173v341h260v-476h-260v79h160v56h-160zM540 433v-180h60v180h-60zM299 663h101v-100h-101v100zM299 514h101v-341h-101v341z" />
    <glyph glyph-name="pied-piper-pp" unicode="&#xf1a7;" horiz-adv-x="875" 
d="M401 509q0 -31 -18 -52.5t-44 -21.5q-22 0 -33 7v133q13 8 33 8q26 0 44 -21.5t18 -52.5zM504 378q26 0 44 -21.5t18 -52.5t-18 -52.5t-44 -21.5q-21 0 -34 7v133q14 8 34 8zM875 694v-688q0 -39 -27.5 -66.5t-66.5 -27.5h-687q-39 0 -66.5 27.5t-27.5 66.5v688
q0 39 27.5 66.5t66.5 27.5h687q39 0 66.5 -27.5t27.5 -66.5zM361 352q39 0 72.5 21t53 56.5t19.5 77.5t-19.5 78t-53 57t-72.5 21q-33 0 -67 -17h-89v-403l101 19v99q26 -9 55 -9zM671 302q0 42 -19.5 78t-53 57t-72.5 21q-6 0 -18 -2q-13 -38 -38 -65q-20 -22 -46 -34
t-55 -14v-305l101 19v99q26 -9 56 -9q39 0 72.5 21t53 56.5t19.5 77.5z" />
    <glyph glyph-name="pied-piper-alt" unicode="&#xf1a8;" horiz-adv-x="1125" 
d="M477 370l-54 -12l-4 10q6 0 18.5 3.5t20 3.5t19.5 -5zM742 -17q17 0 60 -99l4 -9q-100 -37 -207 -19l-13 88q22 14 76 27q50 12 80 12zM666 504q-9 4 -42 5q-37 2 -74 -3q-46 -6 -77 -21q9 17 20 26t30 16q29 11 54 33q15 14 42 45l19 22q9 -6 19 -21q10 -13 16 -18
q11 -7 27 -6v-42l12 -1q66 25 108 46q58 28 100.5 60.5t66 56t41.5 51.5q12 18 38 65l13 23l4 5q-1 -18 -8 -40q-5 -15 -16 -38q-45 -92 -115.5 -148t-171.5 -80l-22 -4q-35 -5 -51 -13q2 -11 16 -28q10 -13 10 -18t-13 -15l-2 -1l-12 14q-12 14 -17 19q-8 7 -15 10z
M1085 850l-1 -3l-1 -1l1 2zM969 104q25 -42 61 -80q22 -23 71 -67l10 -9q-27 -17 -65 -34q-22 -11 -68.5 -30t-68.5 -29q-30 26 -49 87q-12 38 -27 124q-14 79 -24 115q-16 59 -41 88q-30 36 -77 36l-3 -1q-2 -1 -5 -2l-1 -1l3 -3q4 -3 5 -5l14 -12q22 -18 29 -26
q12 -13 18 -30t7 -46v-19q1 -23 -3 -52q-3 -17 -11 -51l-5 -21q-19 1 -58 -5q-31 -5 -47 -6q-26 -1 -47 6q-1 11 -1 37q0 30 2 43q1 6 9 15q5 6 18 19q18 17 25 26q12 15 12 25q-13 2 -24 -13q-21 -30 -62 -55q-43 -27 -77 -27q-12 0 -37 28q-14 17 -47 61q-24 33 -36 47
q-18 24 -30 32q-6 4 -14 15l-1 2q-32 -8 -150 -34q-127 -29 -137 -29t-16.5 6t-6.5 15t4.5 15.5t12.5 7.5l273 59q-10 19 2 28q8 5 29 10l11 2q3 0 9 3.5t9 3.5q9 0 17 -10q6 -7 10 -17l5 1q86 20 92 20q14 0 20 -10t1.5 -21.5t-16.5 -13.5l-102 -22v-9q0 -9 23 -39
q21 -28 47 -53.5t34 -25.5q17 0 43 23q25 21 44.5 49.5t19.5 45.5q0 22 -15 31q-9 6 -32 10q-19 3 -25 6q-11 6 -11 18q0 8 5 20l-38 10q18 19 23 46q3 22 -2 53q52 9 81 9q45 0 64.5 -5t29.5 -18q7 -9 17 -39q10 -27 17 -44l28 14q-2 -27 -17 -38q-10 -7 -30 -10
q-12 -1 -15 -3q-7 -3 -6 -10v-12q68 3 126 -31q49 -28 94 -85q32 -39 73 -109zM586 14h18l5 -47l-23 -7v54zM452 307l27 7l61 -99l-41 -27zM617 5q14 2 37 5q44 7 79 7q2 -4 2 -9q0 -7 -37 -15q-20 -4 -61 -10l-16 -2z" />
    <glyph glyph-name="drupal" unicode="&#xf1a9;" horiz-adv-x="875" 
d="M624 626q28 -17 61 -49q53 -52 85 -116q43 -87 43 -185q0 -106 -52 -192q-50 -80 -135 -126t-184.5 -46t-186.5 48.5t-138 131.5q-54 87 -54 191q0 96 44 180q33 63 88 114q36 34 64 49l24 12q25 13 38 21q21 13 43 30q17 14 27 33q13 25 16 64q63 -76 91 -95
q21 -14 63 -33t63 -32zM629 -10q4 4 4 10t-3 8.5t-9 -1.5q-15 -11 -40 -19q-31 -9 -67 -9q-30 0 -56 7q-18 5 -33 12l-11 7q-9 0 -14.5 -8t1.5 -15q25 -23 74 -28q44 -5 89 5.5t65 30.5zM523 93q-15 -6 -31 -20q-21 -19 -13 -29q3 -4 8 -2t16 11l3 3q12 10 19 13q12 6 31 6
t29 -9q6 -4 11 -15q2 -6 4 -7.5t6 0.5q9 5 8 15q-2 9 -8.5 18.5t-11.5 12.5q-11 7 -34.5 7.5t-36.5 -4.5zM703 59q27 -2 51 30q21 29 29 71.5t-3 72.5q-13 33 -46 33q-13 0 -35 -12q-14 -8 -43.5 -28.5t-43.5 -28.5q-24 -13 -37.5 -13t-32.5 10q-12 7 -38 25q-41 29 -64 41
q-40 19 -78 19q-46 0 -81 -25q-31 -22 -46 -57.5t-8.5 -69.5t34.5 -53q34 -23 78 -20q35 2 79 23q26 12 73 41q34 20 48 27q23 11 36.5 10.5t34.5 -16.5q12 -10 37 -36q21 -22 31 -30q16 -13 25 -14z" />
    <glyph glyph-name="joomla" unicode="&#xf1aa;" horiz-adv-x="875" 
d="M1 670q0 32 16 59t43 43t58 16q44 0 76 -28t40 -70q49 11 96 -3q51 -15 92 -56l-86 -87q-28 28 -60 28q-28 0 -49 -21t-21 -51t21 -51l195 -194l-86 -87l-195 195q-38 38 -51 90t2 103q-39 9 -65 41t-26 73zM254 443q119 117 195 195q38 38 90 51t102 -2q6 43 39 72
t77 29q31 0 58 -16t43 -43t16 -59q0 -44 -29.5 -77t-72.5 -39q15 -51 2 -100q-14 -54 -58 -98l-86 87q28 28 28 60q0 27 -21 48t-51 21t-51 -21q-9 -10 -96.5 -97.5l-97.5 -97.5zM774 146q43 -6 72 -39t29 -77q0 -32 -15.5 -59t-42.5 -42.5t-59 -15.5q-42 0 -74.5 26.5
t-40.5 67.5q-52 -17 -105 -3q-55 14 -95 57l86 87q27 -28 59 -28q28 0 49 21t21 51t-21 50l-195 195l87 87l187 -187l7 -8q37 -37 50 -86t1 -97zM610 249q-85 -85 -138 -137l-57 -57q-37 -37 -86 -50t-98 -1q-9 -40 -40.5 -66t-73.5 -26q-32 0 -59 16t-42.5 43t-15.5 59
q0 41 25.5 73t64.5 41q-13 50 1 98q14 51 57 94l86 -87q-28 -28 -27 -59q0 -28 21 -49t50.5 -21t50.5 21l195 195z" />
    <glyph glyph-name="behance" unicode="&#xf1b4;" horiz-adv-x="1125" 
d="M453 387q63 -18 95 -63.5t32 -112t-35 -114.5q-33 -43 -90 -65q-53 -21 -119 -21h-336v692h326q102 0 156 -34q66 -42 66 -138q0 -52 -24 -87t-71 -57zM152 585v-162h154q43 0 67 19q26 22 26 64q0 79 -104 79h-143zM315 128q112 0 112 92q0 99 -109 99h-166v-191h163z
M1015 598h-281v68h281v-68zM1125 254q0 -5 -1 -14v-12h-362q0 -60 31.5 -93.5t91.5 -33.5q35 0 65 16q35 19 44 49h122q-28 -86 -86.5 -127.5t-148.5 -41.5q-78 0 -136 33.5t-89 93t-31 137.5q0 75 32 135.5t90 94.5q59 35 134.5 35t132.5 -38q53 -35 82 -97t29 -137z
M763 315h224q-5 51 -32.5 79t-77.5 28t-80.5 -29t-33.5 -78z" />
    <glyph glyph-name="behance-square" unicode="&#xf1b5;" horiz-adv-x="875" 
d="M364 278q0 -50 -61 -50h-88v103h90q59 0 59 -53zM349 439q0 -23 -13.5 -34t-36.5 -11h-84v87h78q26 0 39 -8q17 -10 17 -34zM608 393q27 0 42 -15t17 -43h-121q1 27 18 42.5t44 15.5zM875 694v-688q0 -39 -27.5 -66.5t-66.5 -27.5h-687q-39 0 -66.5 27.5t-27.5 66.5v688
q0 39 27.5 66.5t66.5 27.5h687q39 0 66.5 -27.5t27.5 -66.5zM531 489h152v37h-152v-37zM447 273q0 37 -18 64.5t-51 36.5q27 13 39.5 29t12.5 43q0 52 -36 75q-29 18 -84 18h-177v-375h182q56 1 92 26q40 30 40 83zM742 302q0 63 -34 104q-37 43 -98 43q-41 0 -72.5 -18.5
t-49 -51.5t-17.5 -73q0 -64 38 -103.5t101 -39.5q49 0 80.5 22.5t46.5 69.5h-65q-6 -17 -24 -27q-17 -9 -35 -9q-33 0 -50 18t-17 51h196v14z" />
    <glyph glyph-name="steam" unicode="&#xf1b6;" horiz-adv-x="968" 
d="M969 350q0 -132 -66 -245q-64 -109 -174 -173q-113 -66 -245 -66q-110 0 -208 46q-94 45 -162.5 125t-96.5 181l186 -77q9 -47 47 -78.5t87 -31.5q38 0 70.5 19t50.5 52t16 73l166 117q50 -1 93 23.5t68.5 67t25.5 92.5t-24.5 91.5t-66.5 66t-92 24.5t-92 -24.5
t-66.5 -66.5t-24.5 -91v-2l-116 -168q-45 3 -85 -24l-260 108q10 123 78 226q66 101 172 159q109 60 234 60q132 0 245 -66q110 -64 174 -173q66 -113 66 -245zM304 99q29 -12 58 0t41.5 41t0.5 58t-41 42l-62 25q38 14 76.5 -2t55.5 -54.5t-1 -79.5q-10 -26 -32 -42
t-49 -20t-53 7q-15 6 -30.5 21t-22.5 29zM644 353q-33 0 -61 16.5t-44.5 44.5t-16.5 61t16.5 61t44.5 44.5t61 16.5t61 -16.5t44 -44.5t16 -61t-16.5 -61t-44 -44.5t-60.5 -16.5zM644 384q38 0 64.5 27t26.5 64.5t-26.5 64t-64.5 26.5t-65 -26.5t-27 -64.5t27 -64.5
t65 -26.5z" />
    <glyph glyph-name="steam-square" unicode="&#xf1b7;" horiz-adv-x="875" 
d="M362 154q11 27 0 54t-39 38l-57 24q35 14 71.5 -1t51.5 -52t-0.5 -74t-52 -52t-73.5 1q-34 13 -50 47l56 -23q27 -11 54.5 0t38.5 38zM781 788q39 0 66.5 -27.5t27.5 -66.5v-688q0 -39 -27.5 -66.5t-66.5 -27.5h-687q-39 0 -66.5 27.5t-27.5 66.5v221l174 -72
q9 -45 44.5 -74t81.5 -29q36 0 65.5 18t46.5 48.5t16 67.5l155 110q47 -1 87 22t64 62.5t24 86t-23 86t-62.5 62.5t-85.5 23t-85.5 -23t-63 -62.5t-23.5 -85.5v-2l-108 -157q-43 3 -79 -22l-228 94v314q0 39 27.5 66.5t66.5 27.5h687zM587 353q-31 0 -57 15.5t-41.5 41.5
t-15.5 57t15.5 57t41.5 41.5t57 15.5t57 -15.5t41.5 -41.5t15.5 -57t-15.5 -57t-41.5 -41.5t-57 -15.5zM587 381q35 0 60.5 25.5t25.5 60.5t-25.5 60.5t-60.5 25.5t-60.5 -25.5t-25.5 -60.5t25.5 -60.5t60.5 -25.5z" />
    <glyph glyph-name="dollar" unicode="&#xf363;" 
d="M469 756h62v-65q44 -7 80 -33.5t56.5 -66t20.5 -85.5v-31h-63v31q0 34 -17 63t-45.5 45.5t-62.5 16.5t-62.5 -17t-45.5 -45.5t-17 -62.5q0 -27 10 -46q8 -16 27 -31q16 -12 43 -26q17 -8 55 -23l14 -6q36 -14 53 -23q29 -14 50 -31q28 -22 44 -53q17 -34 17 -73
q0 -45 -20.5 -85t-56.5 -66.5t-80 -33.5v-65h-62v65q-44 7 -79.5 33.5t-56 66t-20.5 85.5v31h62v-31q0 -34 17 -63t45.5 -45.5t62.5 -16.5t62.5 17t45.5 46t17 62q0 27 -9 46q-9 16 -28 31q-16 13 -44 27q-20 9 -56 24l-13 5q-35 15 -53 23q-28 14 -49 30q-27 21 -43 53
q-17 33 -17 73q0 45 20.5 85t56 66.5t79.5 33.5v65z" />
    <glyph glyph-name="dollar" unicode="&#xf1bb;" 
d="M469 756h62v-65q44 -7 80 -33.5t56.5 -66t20.5 -85.5v-31h-63v31q0 34 -17 63t-45.5 45.5t-62.5 16.5t-62.5 -17t-45.5 -45.5t-17 -62.5q0 -27 10 -46q8 -16 27 -31q16 -12 43 -26q17 -8 55 -23l14 -6q36 -14 53 -23q29 -14 50 -31q28 -22 44 -53q17 -34 17 -73
q0 -45 -20.5 -85t-56.5 -66.5t-80 -33.5v-65h-62v65q-44 7 -79.5 33.5t-56 66t-20.5 85.5v31h62v-31q0 -34 17 -63t45.5 -45.5t62.5 -16.5t62.5 17t45.5 46t17 62q0 27 -9 46q-9 16 -28 31q-16 13 -44 27q-20 9 -56 24l-13 5q-35 15 -53 23q-28 14 -49 30q-27 21 -43 53
q-17 33 -17 73q0 45 20.5 85t56 66.5t79.5 33.5v65z" />
    <glyph glyph-name="spotify" unicode="&#xf1bc;" horiz-adv-x="968" 
d="M484 834q132 0 245 -66q110 -64 174 -174q66 -113 66 -244t-66 -244q-64 -110 -174 -174q-113 -66 -245 -66t-245 66q-109 64 -173 174q-66 113 -66 244t66 244q64 110 174 174q113 66 244 66zM681 122q12 0 21 8.5t9 21t-5 20.5q-4 5 -14 12q-190 112 -463 51
q-27 -5 -27 -33q0 -12 8.5 -21t22.5 -9q6 0 21 5h2q114 23 209 14q109 -10 195 -62q11 -7 21 -7zM734 250q16 0 26.5 11t11.5 27q0 25 -23 38q-72 43 -160.5 66t-184.5 23q-56 0 -106 -7q-39 -6 -85 -19q-31 -9 -31 -41q0 -16 11 -27t27 -11q6 0 14 3l10 2q119 32 248 15
q124 -16 218 -72l2 -1q12 -7 22 -7zM794 399q18 0 32 13t14 32q0 31 -26 44q-79 47 -188 71q-102 23 -213 23q-127 0 -229 -30q-15 -4 -24.5 -16t-9.5 -31.5t13 -32.5t32 -13q8 0 22 4l3 1q80 22 182.5 23t198.5 -19q100 -22 168 -62q13 -7 25 -7z" />
    <glyph glyph-name="deviantart" unicode="&#xf1bd;" horiz-adv-x="625" 
d="M625 668l-192 -350l15 -18h177v-250h-314l-27 -18l-85 -164q-1 0 -16 -16l-2 -2h-181v182l182 351l-14 18h-168v249h305l26 18l85 164q1 0 16 16l2 2h191v-182z" />
    <glyph glyph-name="soundcloud" unicode="&#xf1be;" horiz-adv-x="1248" 
d="M218 349l11 -126l-11 -134q-1 -4 -3.5 -6t-5.5 -2t-5.5 2t-2.5 6l-11 134l11 126q0 4 2.5 6.5t5.5 2.5t5.5 -2.5t3.5 -6.5zM259 439q4 0 7 -3t3 -7l11 -206l-11 -134q0 -4 -3 -7t-7 -3t-6.5 3t-2.5 7l-10 134l10 206q0 4 2.5 7t6.5 3zM309 486q5 0 8 -3t3 -8l10 -254
l-10 -132q0 -4 -3 -7t-8 -3q-9 0 -11 10l-8 132l8 254q1 5 4 8t7 3zM14 297q3 0 5 -5l11 -69l-11 -69q-2 -5 -5 -5t-5 5l-9 69l9 69q2 5 5 5zM60 340q4 0 6 -5l14 -112l-14 -111q-2 -5 -5 -5t-4.5 2t-1.5 4l-12 110l12 112q0 5 5 5zM110 362q2 0 4 -2t2 -4l13 -133l-13 -129
q0 -2 -2 -4t-4 -2q-5 0 -7 6l-11 129l11 133q2 6 7 6zM159 366q7 0 8 -7l12 -136l-12 -133q-2 -7 -8 -7q-3 0 -5 2t-2 5l-11 133l11 136q0 7 7 7zM631 583q8 -6 8 -14l8 -347l-8 -125q0 -7 -4.5 -12t-11.5 -5t-12 5t-6 12l-3 62l-4 63l7 347q0 7 6 12t11 5q2 0 6 -2z
M578 553q6 -4 8 -13l6 -318l-6 -115v-13q0 -6 -5.5 -10.5t-11.5 -4.5t-12 6q-3 3 -3 9l-6 129l6 317q0 8 7 13q5 3 9.5 3t7.5 -3zM361 509q5 0 8 -3.5t4 -8.5l9 -274l-9 -132q-1 -5 -4.5 -8t-7.5 -3t-7.5 3t-4.5 8l-8 132l8 274q0 5 3.5 8.5t8.5 3.5zM1097 386
q41 0 76.5 -20.5t56 -56t20.5 -77t-20.5 -77t-56 -56t-77.5 -20.5h-426q-7 2 -12 7t-5 11v488q0 7 3 11t12 7q45 18 99 18q69 0 128.5 -32.5t97.5 -89t44 -125.5q27 12 60 12zM517 504q6 0 10 -4t5 -11l7 -267l-7 -128q0 -6 -4.5 -10.5t-10.5 -4.5t-10.5 4.5t-4.5 10.5
l-7 128l7 267q0 7 4.5 11t10.5 4zM412 519q5 0 9 -4t4 -9l9 -283l-9 -131q0 -5 -4 -9t-9 -4t-8.5 4t-3.5 9l-8 131l8 283q0 5 3.5 9t8.5 4zM465 513q5 0 9 -4t4 -10l8 -276l-8 -130q0 -6 -4 -10t-9 -4t-9 4t-5 10l-8 130l8 276q0 6 4 10t10 4z" />
    <glyph glyph-name="edit" unicode="&#xf1c1;" 
d="M781 724q39 0 66 -27t27 -65.5t-27 -65.5l-316 -317l-9 -1l-110 -22l-46 -10l10 46l22 110l1 9l317 316q27 27 65 27zM781 664q-10 0 -21 -11l-303 -303l-11 -54l54 11l303 303q22 22 0 43q-11 11 -22 11zM125 600h412l-62 -62h-287v-500h500v287l62 62v-412h-625v625z
" />
    <glyph glyph-name="envelope" unicode="&#xf1c6;" 
d="M94 600h31h781v-562h-812v562zM229 538l271 -181l272 181h-543zM156 510v-410h688v410l-326 -218l-18 -10l-18 10z" />
    <glyph glyph-name="vine" unicode="&#xf1ca;" horiz-adv-x="750" 
d="M750 353v-102q-54 -12 -102 -12q-33 -70 -86 -141q-44 -59 -92 -108q-42 -43 -66 -56q-21 -12 -41 -12t-42 13q-44 26 -92 84q-74 89 -128 222q-71 174 -101 408h146q25 -214 89 -366q50 -120 135 -223q90 91 147 209q-73 37 -114.5 113t-41.5 171q0 64 24 115.5t68 79.5
q46 30 108 30q79 0 126 -41q41 -35 56 -97q12 -53 4 -117q-7 -57 -27 -100l-15 -2q-18 -1 -35 1q-23 2 -41 11q-22 11 -33 31q16 50 16 94.5t-15 67.5t-41.5 23t-43 -25t-16.5 -72q0 -76 36 -128q33 -50 91 -68.5t127 -2.5z" />
    <glyph glyph-name="codepen" unicode="&#xf1cb;" 
d="M981 538q9 -6 14 -15.5t5 -20.5v-304q0 -11 -5 -20.5t-14 -15.5l-457 -305q-23 -14 -48 0l-457 305q-9 6 -14 15.5t-5 20.5v304q0 11 5 20.5t14 15.5l457 305q23 14 48 0zM543 727v-201l186 -124l151 100zM457 727l-336 -225l150 -100l186 124v201zM86 422v-144l108 72z
M457 -27v201l-186 124l-150 -100zM500 249l152 101l-152 102l-152 -102zM543 -27l337 225l-151 100l-186 -124v-201zM914 278v144l-108 -72z" />
    <glyph glyph-name="jsfiddle" unicode="&#xf1cc;" horiz-adv-x="1123" 
d="M997 386q67 -37 97.5 -102.5t13.5 -136.5q-11 -49 -41.5 -88t-74.5 -61t-95 -22q-123 -1 -369 -1h-168q-89 0 -134 1t-87.5 22t-73.5 57t-44 80q-21 68 1 134t81 110q4 3 6.5 8.5t1.5 9.5q-11 95 64.5 150t166.5 18l15 -8q47 79 128 125q89 50 190 42q98 -8 176 -65
q82 -60 116 -156q8 -23 15 -72l3 -24q1 -8 3.5 -12.5t8.5 -8.5zM1039 80q37 46 40.5 102.5t-25.5 105.5t-84 74q-11 5 -15 12t-4 19q-1 89 -45 159q-41 65 -109.5 101.5t-145.5 37.5q-80 0 -150 -39q-78 -43 -118 -119q-9 -16 -17 -17q-6 -1 -19 7l-8 5q-74 39 -140 -6
q-33 -23 -46.5 -54t-5.5 -69q4 -17 -1 -27t-19 -19q-37 -24 -58.5 -62t-24 -81.5t15.5 -82.5q27 -58 74 -87.5t112 -30.5h3q317 -1 317 1h111q148 -1 222 0q84 1 140 70zM867 237q-8 -46 -45.5 -77t-84.5 -31q-49 0 -86 35q-21 19 -72 71q-42 44 -62 63q-34 33 -54 48
q-29 22 -59.5 19.5t-57.5 -26.5q-35 -30 -35 -72q0 -38 26.5 -68.5t63.5 -35.5q41 -6 76 25q4 3 10 11q9 10 15 14q8 5 17 4.5t12 -7.5t-4 -17q-25 -39 -67.5 -55t-85.5 -3t-69.5 50.5t-26.5 86.5q2 35 19 62q18 30 51.5 48t67 17.5t62.5 -22.5q34 -26 68 -59q20 -20 55 -58
q29 -32 44 -46q23 -23 43 -35q36 -22 74.5 -12t59 45.5t12.5 72.5q-7 34 -35 57.5t-62 23.5q-38 0 -69 -29l-7 -8q-9 -11 -15 -15q-10 -6 -17.5 -3.5t-9.5 10.5t2 14q31 42 73.5 57.5t89 -2t70 -61t13.5 -92.5z" />
    <glyph glyph-name="exclamation-circle" unicode="&#xf1ce;" 
d="M500 725q102 0 189 -51q85 -50 135 -135q51 -87 51 -189t-51 -189q-50 -85 -135 -135q-87 -51 -189 -51t-189 51q-85 50 -135 135q-51 87 -51 189t51 189q50 85 135 135q87 51 189 51zM500 663q-85 0 -158 -43q-70 -41 -112 -112q-42 -73 -42 -158t42 -158
q42 -70 112 -112q73 -42 158 -42t158 42q71 42 112 112q43 73 43 158t-43 158q-41 71 -112 112q-73 43 -158 43zM469 538h62v-250h-62v250zM469 225h62v-62h-62v62z" />
    <glyph glyph-name="rebel" unicode="&#xf1d0;" 
d="M501 -134q-133 0 -246 69q-108 66 -170 179q-63 115 -59 248q4 117 62.5 219t164.5 172h1q3 1 2 -1q-8 -7 -26 -32q-25 -36 -44 -74q-25 -52 -34 -102q-10 -62 5 -117q18 -64 71 -117q27 -27 56 -38q24 -9 48 -6q19 3 38 13q13 7 25 17l9 9q26 34 31 80q5 37 -3 80
q-6 31 -18 61l-11 25q-9 21 -32 42q-17 14 -39 26l-19 10l57 62q21 -9 43 -29q15 -14 30 -32l11 -15q1 26 -10 57q-8 22 -21 45l-12 18l87 99l87 -97q-18 -25 -29 -57q-8 -23 -12 -47l-2 -19q12 20 34 40q16 14 35 27l16 10l56 -62q-24 -8 -47 -28q-17 -14 -31 -34l-11 -16
q-17 -30 -26 -73q-9 -48 -4 -91q6 -50 31 -85q22 -30 53 -36q26 -4 56 6q22 8 44 23l18 13q36 32 57 70q19 35 25 74q5 35 0 74q-4 33 -17 69q-10 30 -26 60q-12 25 -28 49q-11 17 -22 31l-9 12q-7 7 -3 7l5 -1h1q50 -38 75 -60q43 -38 73 -79q35 -50 54 -110
q22 -68 23 -151q2 -141 -59 -253q-60 -109 -167 -171q-110 -63 -247 -63z" />
    <glyph glyph-name="empire" unicode="&#xf1d1;" horiz-adv-x="968" 
d="M562 744q-37 7 -66 7v36q113 -4 210 -60q94 -55 151 -148l-31 -18q-19 30 -39 53l-36 -31q-38 44 -89 73.5t-110 41.5zM104 220q12 -31 27 -60l-31 -18q-53 100 -53 208q0 113 53 208l31 -18q-19 -36 -27 -60l45 -15q-19 -53 -19 -115q0 -58 19 -115zM416 2l-9 -46
q37 -7 66 -7v-36q-113 4 -210 61q-94 55 -152 147l32 19q17 -28 39 -54l35 31q39 -44 89.5 -73.5t109.5 -41.5zM182 614q-20 -23 -39 -53l-31 18q57 93 151 148q97 56 210 60v-36q-29 0 -66 -7l9 -46q-58 -11 -110 -41q-50 -29 -89 -73zM787 86q26 32 39 54l31 -19
q-57 -93 -151 -148q-97 -57 -210 -60v36q28 0 66 7l-10 46q59 12 110 41.5t89 73.5zM969 350q0 -132 -66 -245q-64 -109 -174 -173q-113 -66 -245 -66t-245 66q-109 64 -173 173q-66 113 -66 245t66 245q64 109 174 173q113 66 244 66t244 -66q110 -64 175 -173
q66 -113 66 -245zM945 350q0 125 -63 232q-61 105 -165 166q-108 63 -233 63t-233 -63q-104 -61 -164 -166q-63 -107 -63 -232t63 -232q61 -105 165 -166q107 -63 232 -63t232 63q105 61 166 166q63 107 63 232zM869 558q53 -98 53 -207t-53 -209l-31 18q18 35 27 61l-45 15
q19 55 19 114q0 62 -19 115l45 15q-14 36 -27 60zM511 211l26 -130q-32 -6 -52 -6t-54 6l26 130q-49 11 -79 46l-100 -87q-37 42 -53 91l125 43q-7 26 -7 46t7 46l-126 43q17 49 54 92l100 -88q32 36 79 47l-26 129q26 6 54 6t52 -6l-26 -129q48 -11 80 -47l100 88
q35 -41 53 -92l-126 -43q8 -24 8 -46t-8 -46l126 -43q-18 -52 -53 -91l-100 87q-31 -35 -80 -46z" />
    <glyph glyph-name="git" unicode="&#xf1d3;" horiz-adv-x="875" 
d="M37 417q0 64 41 108q38 40 96 48.5t110 -21.5q47 0 107 23v-98q-13 -5 -39 -11q8 -21 8 -41q0 -62 -35.5 -106t-96.5 -55q-19 -4 -28.5 -13t-9.5 -28q0 -21 23 -34q14 -7 52.5 -17t56.5 -18q30 -13 46 -32q19 -24 19 -61q0 -149 -177 -149q-74 0 -121 27q-58 33 -58 102
q0 80 89 110v2q-23 14 -31 43q-6 26 2.5 51.5t26.5 33.5v2q-35 12 -59 55q-22 39 -22 79zM208 97q-77 0 -78 -51q0 -49 85 -49q74 0 74 50t-81 50zM202 350q58 0 58 67q0 33 -19 53q-16 18 -40.5 18t-40.5 -18q-19 -20 -19 -54q0 -66 61 -66zM844 253v-95q-33 -19 -89 -19
q-49 0 -77 24q-24 21 -33 62q-7 30 -7 81v171h1v2h-9q-14 2 -38 -2v93h47v22v34q-1 13 -3 24h111q-3 -22 -3 -67v-13h100v-93l-27 1q-34 1 -73 1v-178q0 -64 43 -64q14 0 29.5 4.5t27.5 11.5zM559 716q0 -28 -19.5 -49.5t-47.5 -21.5t-47.5 21.5t-19.5 50t19.5 50t48 21.5
t47.5 -22t19 -50zM547 570q-3 -21 -3 -210t3 -215h-109q2 28 3 215q0 189 -3 210h109z" />
    <glyph glyph-name="hacker-news" unicode="&#xf1d4;" horiz-adv-x="875" 
d="M0 788h875v-876h-875v876zM41 402v0q0 1 1 1zM467 297l158 303h-68q-52 -96 -77 -149q-15 -31 -27 -62q-8 -20 -14 -34l-11 27q-12 33 -27 64q-25 54 -78 154h-73l156 -299v-201h61v197z" />
    <glyph glyph-name="tencent-weibo" unicode="&#xf1d5;" horiz-adv-x="748" 
d="M141 -118q1 -18 -12.5 -27t-28.5 -3t-17 24q-16 185 39 347q52 153 159 265q-15 33 -6 68t37 58q29 24 68 24q29 0 54 -14.5t39.5 -39t14.5 -53.5q0 -42 -27.5 -72t-65.5 -35q-42 -6 -77 19q-99 -108 -144 -247q-48 -146 -33 -314zM375 850q88 0 164 -44q74 -44 117 -117
q44 -76 44 -164q0 -74 -31.5 -139.5t-87 -111.5t-126.5 -64q-74 -19 -153 -2q-17 4 -21 20t6.5 28.5t27.5 8.5q78 -20 154 9.5t123 94.5q50 69 50 155q0 73 -36 134.5t-97.5 97.5t-133.5 36t-133 -35q-58 -34 -94 -92t-40 -125q-4 -71 29 -137q8 -17 -2 -29.5t-26 -12.5
t-24 16q-40 77 -35 163q4 82 47 153t114 113q75 44 164 44z" />
    <glyph glyph-name="qq" unicode="&#xf1d6;" horiz-adv-x="875" 
d="M847 29q-10 -1 -32 25q-16 19 -37 51l-18 27q0 -49 -24 -101q-27 -57 -76 -98q39 -12 64 -26q37 -21 25 -41q-6 -11 -72 -15q-54 -2 -132 0q-70 3 -107 7q-38 -4 -108 -7q-78 -2 -132 0q-66 4 -72 15q-12 20 25 41q25 14 64 26q-49 41 -75 98q-25 52 -25 101l-18 -27
q-21 -32 -37 -51q-22 -26 -32 -25q-7 1 -10 21q-3 24 2 63q7 48 26 111q12 38 29 83q11 28 38 93l12 30q-3 119 28 211q34 97 103 151q74 58 181.5 58t181.5 -57q68 -54 102 -151q33 -92 30 -212l19 -47q43 -107 59 -159q19 -63 26 -111q5 -39 2 -63q-3 -20 -10 -21z" />
    <glyph glyph-name="weixin" unicode="&#xf1d7;" horiz-adv-x="1125" 
d="M752 523q-88 0 -164 -41q-73 -40 -115 -108q-43 -70 -43 -152q0 -42 12 -80q-12 -1 -36 -1q-30 0 -62 5q-20 3 -60 12l-11 2l-133 -67l38 114q-74 52 -112 115q-41 66 -41 143q0 88 52 164q51 73 137 115q89 44 192 44q92 0 174 -35t137 -95q56 -62 72 -137q-24 2 -37 2z
M548 626q-22 0 -39.5 -13.5t-17.5 -34t17 -34t39.5 -13.5t35.5 13t13 34.5t-13 34.5t-35 13zM282 531q22 0 35 13t13 34.5t-13 34.5t-35 13t-39.5 -13.5t-17.5 -34t17.5 -34t39.5 -13.5zM1100 226q0 -61 -38 -120q-34 -53 -96 -99l29 -95l-104 57l-8 -2l-54 -12
q-29 -5 -52 -5q-89 0 -164 38q-73 36 -116 99.5t-43 138.5t43 138.5t116 99.5q75 38 164 38q84 0 158.5 -37.5t118.5 -99.5q46 -65 46 -139zM672 274q20 0 33.5 11.5t13.5 26.5t-13 26.5t-34 11.5q-14 0 -26 -12t-12 -26t12 -26t26 -12zM881 274q20 0 34 11.5t14 26.5
t-14 26.5t-34 11.5q-14 0 -26 -12t-12 -26t12 -26t26 -12z" />
    <glyph glyph-name="slideshare" unicode="&#xf1e7;" 
d="M367 550q33 0 60.5 -15t43.5 -41t16 -56.5t-16 -56.5t-44 -41.5t-60 -15.5t-60 15.5t-44.5 41.5t-16.5 56.5t16 56.5t44 41t61 15zM647 550q33 0 60.5 -15t43.5 -41t16 -57t-16 -56.5t-43.5 -41t-60.5 -15.5t-60.5 15.5t-44 41t-16.5 56.5t16 57t44 41t61 15zM953 374
q14 10 24.5 6.5t13 -16t-6.5 -25.5q-30 -37 -78 -71q-57 -40 -130 -69q20 -67 20 -126q0 -53 -15 -97q-15 -40 -41 -69q-24 -27 -55 -41.5t-61.5 -15.5t-56 10.5t-40 36t-13.5 59.5v183l-27 6q0 -67 -1 -182v-7q1 -35 -13.5 -59t-40 -36t-56 -11t-61.5 15.5t-55 41.5
q-26 29 -41 69q-15 44 -15 97q0 59 20 126q-73 30 -129 69q-49 35 -79 72q-9 13 -6.5 25t13.5 15.5t25 -6.5q4 -4 12 -8v387q0 40 26.5 68.5t63.5 28.5h701q37 0 63.5 -28.5t26.5 -68.5v-387zM893 337v0v372q0 49 -17.5 69t-62.5 20h-620q-31 0 -48 -8t-24 -27t-7 -54v-376
q79 -41 166 -53q49 -6 124 -3l17 1q38 1 53.5 -14.5t39.5 -33.5q2 25 17 37.5t48 11.5l13 -1q49 -2 79 -1q54 2 103 14q61 15 119 46z" />
    <glyph glyph-name="twitch" unicode="&#xf1e8;" horiz-adv-x="875" 
d="M78 788h778v-536l-229 -229h-170l-111 -111h-117v111h-209v614zM777 291v418h-627v-548h177v-111l111 111h209zM647 559v-228h-79v228h79zM438 559v-228h-79v228h79z" />
    <glyph glyph-name="yelp" unicode="&#xf1e9;" horiz-adv-x="744" 
d="M82 381l194 -95q18 -9 23.5 -27.5t-3.5 -35t-28 -21.5l-210 -52q-20 -5 -36.5 6.5t-18.5 31.5q-10 83 17 167q7 19 25.5 26.5t36.5 -0.5zM168 -87q-17 12 -19 32t11 35l145 161q13 15 32 15t32.5 -13t13.5 -33l-8 -217q-1 -20 -16.5 -33t-35.5 -9q-83 13 -155 62z
M452 128q-11 17 -5.5 35t21.5 27.5t35 3.5l206 -67q19 -6 27 -24.5t0 -36.5q-37 -78 -103 -132q-16 -13 -35.5 -10t-30.5 20zM741 386q8 -18 -0.5 -36.5t-27.5 -24.5l-208 -59q-19 -6 -35 4t-21 28.5t6 35.5l122 179q11 16 31 19t35 -10q64 -58 98 -136zM119 791
q101 48 220 59q19 1 33.5 -12t14.5 -33v-407q0 -22 -16 -34t-36.5 -9.5t-31.5 21.5l-203 353q-10 16 -4 35t23 27z" />
    <glyph glyph-name="paypal" unicode="&#xf1ed;" horiz-adv-x="750" 
d="M218 272q-5 -27 -32 -200l-10 -62q-1 -4 -6 -4h-146q-11 0 -18 8t-6 19l115 726q2 14 13.5 23.5t25.5 9.5h142q95 1 126 0q46 -1 72.5 -5.5t57.5 -16.5q84 -33 103 -110q18 -68 -17 -164q-59 -174 -273 -177h-43q-37 1 -51 0q-23 -2 -36 -12.5t-17 -34.5zM698 553
q71 -53 46 -181q-43 -219 -279 -219h-7q-16 0 -22 -1q-11 -2 -17.5 -10.5t-10.5 -26.5q-27 -168 -28 -176v-3q-3 -13 -12.5 -21t-21.5 -8h-124q-10 0 -16.5 7t-4.5 18l53 332q2 18 21 18h23q84 -1 132 6q83 12 140 52q71 50 104 145q13 34 18 66q1 4 2 4.5t4 -2.5v0z" />
    <glyph glyph-name="google-wallet" unicode="&#xf1ee;" horiz-adv-x="875" 
d="M306 602q103 -164 165 -317q-22 -92 -61 -192q-25 97 -43 149q-28 79 -67 141q6 33 7 75q1 25 0 77q-1 44 -1 67zM214 459q16 0 25 -12q60 -82 100 -182q35 -84 61 -196h-202q-61 214 -179 366q-6 7 -1.5 15.5t13.5 8.5h183zM307 631h212q115 -158 186 -334
q77 -190 94 -385h-222q-11 181 -91 378q-65 161 -179 341zM799 765q60 -214 60 -415q0 -101 -13 -204t-36 -193q-31 268 -177 529q-12 146 -52 285q-2 8 3 14.5t13 6.5h172q10 0 18.5 -6.5t11.5 -16.5z" />
    <glyph glyph-name="cc-visa" unicode="&#xf1f0;" horiz-adv-x="1125" 
d="M918 398l18 -88h-65l42 114zM1125 694v-688q0 -39 -27.5 -66.5t-66.5 -27.5h-937q-39 0 -66.5 27.5t-27.5 66.5v688q0 39 27.5 66.5t66.5 27.5h937q39 0 66.5 -27.5t27.5 -66.5zM298 203l123 303h-83l-76 -207l-9 42l-27 140q-7 25 -36 25h-126l-1 -6q47 -12 82 -33
l70 -264h83zM482 203l49 303h-78l-49 -303h78zM756 302q0 26 -16 46t-50 37q-23 11 -33 18q-12 9 -11.5 19.5t12 18t32.5 7.5q31 1 59 -11l7 -4l11 66q-35 13 -71 13q-58 0 -95 -28t-37 -72q-1 -29 23 -52q16 -16 46 -31q23 -11 31.5 -19.5t8.5 -18.5q0 -14 -14 -21.5
t-33 -7.5q-22 0 -39 4q-14 3 -34 12l-11 5l-11 -68q15 -7 38.5 -11.5t49.5 -5.5q61 0 98.5 28.5t38.5 75.5zM1031 203l-63 303h-61q-15 0 -25 -5.5t-16 -19.5l-116 -278h82l7 20q8 20 9 25h101q2 -6 6 -26l4 -19h72z" />
    <glyph glyph-name="cc-mastercard" unicode="&#xf1f1;" horiz-adv-x="1125" 
d="M943 49q0 -10 -6 -16.5t-16 -6.5t-16 6.5t-6 16.5t6 16.5t15.5 6.5t16 -7t6.5 -16zM336 72q9 0 15 -7t6 -17t-5.5 -16t-15.5 -6t-16 6.5t-6 16.5t6 16.5t16 6.5zM566 72q8 0 12.5 -4.5t5.5 -12.5h-37q3 17 19 17zM776 72q10 0 16 -7t6 -17t-6 -16t-16 -6t-15.5 6.5
t-5.5 16.5t5.5 16.5t15.5 6.5zM983 21l0.5 -1t0.5 -2l-1 -2h-1v-1q-1 -1 -2 -1.5t-2 -0.5t-2 0.5l-2 1t-1 1.5v5l1 2q1 0 2 1h4q1 -1 2 -1zM979 18q1 0 1.5 0.5t0.5 1.5t-1 2h-5v-7h2v3l2 -3h2zM1125 692v-688q0 -39 -27.5 -66.5t-66.5 -27.5h-937q-39 0 -66.5 27.5
t-27.5 66.5v688q0 39 27.5 66.5t66.5 27.5h937q39 0 66.5 -27.5t27.5 -66.5zM125 419q0 -73 36.5 -135t98.5 -98.5t136 -36.5q81 0 149 45q-69 57 -94 142q-24 83 0 166q25 85 94 142q-68 45 -149 45q-74 0 -136 -36.5t-98.5 -98.5t-36.5 -135zM563 207q67 52 91 133
q24 79 0 157q-24 81 -91 134q-68 -53 -92 -134q-24 -78 0 -157q24 -81 92 -133zM285 58q0 13 -8 20.5t-21 7.5q-18 0 -25 -12q-7 12 -24 12q-13 0 -21 -10v8h-16v-71h16v17q-1 24 1 31q4 11 16.5 11t15.5 -11q2 -7 1 -31v-17h15v14q-1 25 2 33q3 12 15.5 12t15.5 -11
q2 -7 1 -31v-17h16v45zM372 84h-15v-8q-8 10 -23 10t-25.5 -10.5t-10.5 -26.5t10.5 -27t25.5 -11t23 11v-9h15v71zM451 34q0 12 -9 17q-6 3 -19 5q-8 1 -12 2.5t-4 5.5q0 8 12.5 8t23.5 -6l6 13q-9 6 -23.5 7.5t-25 -4.5t-10.5 -18t10 -17q5 -3 19 -5l12 -3t4 -5
q0 -9 -14.5 -9.5t-25.5 7.5l-7 -12q11 -7 26 -8.5t26 4.5t11 18zM521 16l-5 14q-7 -5 -15.5 -4t-8.5 12v32h26v14h-26v22h-16v-22h-14v-14h14v-32q0 -16 9 -23q8 -5 18.5 -4t17.5 5zM547 42h53q0 23 -9 34t-24.5 11t-25.5 -11t-10 -27q0 -19 11.5 -29t27.5 -9.5t27 10.5
l-8 12q-12 -10 -25.5 -8t-16.5 17zM662 84q-8 3 -16.5 1.5t-13.5 -9.5v8h-16v-71h16v40q0 15 10 18q8 3 15 -1zM683 49q0 16 13 21t27 -5l8 13q-12 9 -27 8.5t-26 -10.5t-11 -28t11.5 -27.5t26.5 -10t26 8.5l-8 13q-14 -10 -27 -4.5t-13 21.5zM813 84h-16v-8q-8 10 -22 10
t-25 -10t-11 -27.5t11 -28t25.5 -10t21.5 11.5v-9h16v71zM879 84q-5 3 -14 2q-11 -1 -16 -10v8h-15v-71h15v40q0 14 10 18q7 2 15 -1zM957 114h-15v-38q-8 10 -22 10.5t-25 -10t-11 -28t11.5 -27.5t25.5 -9.5t21 10.5v-9h15v101zM972 260v-9h2v9h4v2h-9v-2h3zM985 18
q0 2 -0.5 3t-0.5 2l-1 1l-5 2l-5 -2l-2 -2v-6q0 -2 1 -2.5t2 -0.5l1 -1q1 -1 3 -1t2.5 1t1.5 1l3 3v2zM991 262h-2l-3 -7l-4 7h-2v-11h1v8l3 -6h3l2 6v-8h2v11zM1000 419q0 73 -36.5 135t-98.5 98.5t-135 36.5q-82 0 -150 -45q69 -57 94 -143q25 -83 1 -165
q-25 -86 -95 -142q33 -22 71.5 -33.5t78.5 -11.5q73 0 135 36.5t98.5 98.5t36.5 135z" />
    <glyph glyph-name="cc-discover" unicode="&#xf1f2;" horiz-adv-x="1125" 
d="M1016 467q0 -25 -30 -25h-10v49h10q30 0 30 -24zM1031 788q39 0 66.5 -27.5t27.5 -66.5v-688q0 -39 -27.5 -66.5t-66.5 -27.5h-937q-39 0 -66.5 27.5t-27.5 66.5v688q0 39 27.5 66.5t66.5 27.5h937zM945 516v-160h31v64h5l43 -64h38l-50 67q36 8 36 46q0 23 -14 34
q-11 10 -33 12q-13 2 -41 1h-15zM836 516v-160h88v27h-57v43h56v27h-56v36h57v27h-88zM702 516h-34l68 -164h17l69 164h-34l-43 -108zM593 522q-36 0 -61.5 -25.5t-25.5 -61.5t25 -61.5t61.5 -25.5t62 25.5t25.5 61.5t-25.5 61.5t-61.5 25.5zM496 510q-29 14 -57.5 7.5
t-47 -29t-18.5 -53t18.5 -53t47.5 -29t57 7.5v37q-18 -18 -39.5 -17.5t-36.5 16t-15 39t15 39t36 16.5t40 -18v37zM306 381q-22 0 -34 21l-20 -20q17 -24 43.5 -29t47 9.5t20.5 41.5q0 19 -9.5 29.5t-36.5 20.5q-14 5 -19 9.5t-5 10.5q0 9 8 14t19.5 3.5t20.5 -12.5l17 21
q-18 16 -41 18t-39.5 -10.5t-16.5 -34.5q0 -17 8.5 -27t31 -18t28 -19t-2.5 -19.5t-20 -8.5zM108 356q42 0 66 27q20 22 20 53q0 35 -24 57.5t-62 22.5h-45v-160h45zM240 356v160h-31v-160h31zM1063 4v284q-50 -32 -157 -84q-147 -71 -295 -126q-194 -71 -361 -103h783
q12 0 21 8.5t9 20.5zM145 476q17 -15 17 -39.5t-17 -41.5q-15 -12 -43 -12h-8v106h8q29 0 43 -13z" />
    <glyph glyph-name="cc-amex" unicode="&#xf1f3;" horiz-adv-x="1125" 
d="M635 522q0 -12 -6 -22t-17 -14q13 -5 17.5 -13t4.5 -23v-27h-33v12q1 21 -3 28q-5 10 -26 10h-35v-50h-32v136l76 -1q24 0 37 -6q17 -8 17 -30zM578 500q21 0 21 15t-21 15h-41v-30h41zM545 325q54 0 54 -44q0 -31 -27 -41q-16 -5 -55 -4h-14v-46h-63l-40 45l-41 -45
h-128v135h130l40 -44l41 44h103zM342 219l37 39l-35 40h-81v-25h71v-27h-71v-27h79zM471 203v108l-50 -54zM545 263q9 0 14.5 4.5t5.5 13.5t-5.5 13t-14.5 4h-42v-35h42zM483 530h-76v-24h74v-28h-74v-27h76v-28h-109v136h109v-29zM1125 351v0v0zM745 289q0 -12 -6 -22
t-17 -14q12 -4 17 -14q4 -8 4 -22v-27h-32v23q0 17 -6 22t-23 5h-34l-1 -50h-32v135h77q24 0 36 -6q17 -8 17 -30zM688 267q21 0 21 15.5t-20 15.5h-41v-31h40zM350 423h-32v106l-47 -106h-29l-47 106v-106h-66l-12 30h-68l-12 -30h-35l58 136h48l55 -129v129h53l42 -92
l39 92h53v-136zM61 481h44l-22 54zM993 171h34q43 -1 59 1q25 2 39 11v-177q0 -39 -27.5 -66.5t-66.5 -27.5h-937q-39 0 -66.5 27.5t-27.5 66.5v398h52l4 10l9 20h37l13 -30h103v22l10 -22h57l10 22v-22h265v49h19v-49h130v18q23 -18 58 -18h53l12 30h37l7 -15l6 -15h103v43
l26 -43h81v180h-78v-36l-22 36h-84v-40l-17 40h-66q-2 0 -2 1h-54q-36 0 -60 -19v19h-78v-11q-13 7 -31 9q-13 1 -60 2h-259q-3 -8 -13 -32l-11 -27q-14 29 -27 59h-90v-42l-18 42h-77q-15 -33 -45 -106v215q0 39 27.5 66.5t65.5 27.5h938q39 0 66.5 -27.5t27.5 -66.5v-343
h-13q-50 1 -63 0q-17 -2 -30 -10v10h-47q-40 1 -52 0q-16 -2 -28 -10v10h-153v-10q-13 8 -32 9q-15 1 -67 1h-49v-11q-16 11 -47 11h-113l-31 -33l-17 18q-7 8 -13 15h-163v-180h160q20 20 32 34l30 -34h95q0 15 0.5 23t0.5 22q44 -2 67 12l-1 -57h78v49h18q1 -1 0 -7v-42
h238q37 0 49 2q8 1 17 6l2 1v-9zM1064 297q-9 0 -13.5 -2.5t-4.5 -10.5t9 -10q5 -2 21 -2q17 0 26 -2q14 -3 21 -12v-51q-12 -17 -44 -17h-62v29h62q7 0 12 3t5 10t-9 10q-5 1 -21 2q-25 1 -36 7q-18 9 -18 34q0 20 13.5 30t33.5 10h64v-28h-59zM953 219q17 0 17 13
q0 8 -9 11q-5 1 -20 2q-26 1 -36 6q-18 9 -18 34q0 20 13 30.5t33 10.5h65v-29h-60q-18 0 -18 -12q0 -8 9 -11q5 -1 21 -2q26 0 36 -5q18 -8 18 -34q0 -43 -51 -43h-63v29h63zM871 298h-76v-25h74v-27h-74v-27l76 -1l-1 -28h-107v135h108v-27zM761 509q1 1 3 1q4 1 11 1
l6 -1l-14 -33l-7 1v1q-2 6 -2 15q0 12 3 15zM800 529v0v0zM769 559h31v-30h-11q-19 1 -27 0q-13 -2 -19.5 -10.5t-6.5 -27.5t6 -28q7 -11 25 -11h14l46 106h49l54 -127v127h50l57 -94v94h33v-135h-47l-60 102v-102h-66l-13 30h-67l-13 -30h-37q-65 0 -65 68t67 68zM851 535
l-23 -54h45zM654 559h33v-136h-33v136z" />
    <glyph glyph-name="cc-paypal" unicode="&#xf1f4;" horiz-adv-x="1125" 
d="M364 346q0 -18 -12.5 -30t-30.5 -12q-14 0 -22.5 7.5t-8.5 21.5q0 18 12 30.5t30 12.5q14 0 23 -8t9 -22zM157 440q20 0 27 -4q10 -7 7 -25q-2 -16 -14 -22q-9 -5 -28 -5l-16 -1l9 52q0 5 6 5h9zM712 440q17 0 24 -3q11 -4 11 -18q0 -20 -12 -28q-9 -7 -31 -7l-15 -1
l8 52q0 5 6 5h9zM1125 694v-688q0 -39 -27.5 -66.5t-66.5 -27.5h-937q-39 0 -66.5 27.5t-27.5 66.5v688q0 39 27.5 66.5t66.5 27.5h937q39 0 66.5 -27.5t27.5 -66.5zM251 429q0 29 -20 43q-18 12 -48 12h-78q-4 0 -7 -2.5t-3 -6.5l-32 -200q-1 -2 1 -4.5t5 -2.5h37
q4 0 7 3.5t4 7.5l8 52q1 7 11 9q6 1 18 0h7q42 0 66 23.5t24 65.5zM415 412h-37q-8 0 -8 -16q-8 12 -21 16q-10 4 -26 4q-35 0 -59.5 -26.5t-24.5 -62.5q0 -28 17 -45t45 -17q14 0 28 6.5t24 16.5q-2 -6 -2 -13t6 -7h34q4 0 6.5 3t3.5 8l20 126q1 2 -1 4.5t-5 2.5zM494 221
l125 181q1 1 1 3t-2 4.5t-5 2.5h-37q-6 0 -9 -5l-52 -76l-21 73q-4 8 -11 8h-36q-3 0 -5 -2.5t-2 -4t19.5 -57.5t22.5 -64q-9 -12 -22 -32q-18 -26 -18 -29t2 -5t4 -2h37q6 0 9 5zM805 429q0 29 -20 43q-17 12 -47 12h-78q-4 0 -7 -2.5t-4 -6.5l-31 -199q-1 -3 1 -5.5
t5 -2.5h40q6 0 8 6l9 57q1 7 10 9q6 1 18 0h7q41 0 65 23.5t24 65.5zM970 412h-37q-7 0 -9 -13v-3q-7 12 -20 16q-10 4 -26 4q-35 0 -59.5 -26.5t-24.5 -62.5q0 -29 16.5 -45.5t45.5 -16.5q14 0 28.5 6.5t22.5 16.5l-2 -12q0 -8 7 -8h33q4 0 7 3t4 8l20 126q1 2 -1 4.5
t-5 2.5zM1063 477q0 3 -2 5t-5 2h-36q-2 0 -4 -1.5t-2 -3.5l-32 -204q0 -3 2 -5t5 -2h32q4 0 7 3.5t3 7.5zM887 376q14 0 23 -8t8 -22q0 -18 -12.5 -30t-29.5 -12q-14 0 -23 7.5t-9 21.5q0 18 12.5 30.5t30.5 12.5z" />
    <glyph glyph-name="cc-stripe" unicode="&#xf1f5;" horiz-adv-x="1125" 
d="M962 419q14 0 24 -10q11 -13 11 -35h-72q0 22 12 35q10 10 25 10zM732 414q19 0 31 -18.5t12 -46.5t-12 -46.5t-32 -18.5t-31 13l-1 103q12 14 33 14zM1031 788q39 0 66.5 -27.5t27.5 -66.5v-688q0 -39 -27.5 -66.5t-66.5 -27.5h-937q-39 0 -66.5 27.5t-27.5 66.5v688
q0 39 27.5 66.5t66.5 27.5h937zM239 301q0 34 -24 53q-14 11 -48 23q-18 6 -24 9q-10 6 -10 14q0 15 23 15q17 0 35.5 -4.5t33.5 -13.5v66q-31 12 -69 12q-42 0 -67.5 -21t-25.5 -57q0 -31 23 -49q13 -11 46 -23q19 -7 25 -11q11 -6 11 -15q0 -17 -27 -17q-32 0 -76 22v-66
q38 -16 76 -16q44 1 71 21.5t27 57.5zM373 412v59h-52v60l-68 -15l-1 -222q0 -31 20.5 -51t52.5 -20t48 9v56q-17 -6 -30 -4q-23 3 -23 29v99h53zM518 407v64h-1q-12 4 -26 2q-21 -4 -31 -23l-5 21h-60v-243h70v164q10 14 29 17q13 2 24 -2zM604 228v243h-70v-243h70z
M604 507v56l-70 -15v-56zM748 223q40 0 66 31q29 35 29 97q0 39 -13 68q-13 27 -34.5 41.5t-46.5 14.5q-30 0 -54 -21l-4 17h-61v-324l69 15v78q11 -8 19 -11q14 -6 30 -6zM1062 323v9l1 16q0 55 -26 90q-27 37 -75 37t-77 -36t-29 -90q0 -61 32 -94q31 -32 83 -32
q46 0 77 18v56q-30 -16 -68 -16q-50 0 -54 42h136z" />
    <glyph glyph-name="lastfm" unicode="&#xf202;" 
d="M441 133l-12 -10q-15 -11 -35 -20q-28 -14 -60 -21q-40 -10 -84 -10q-121 0 -185.5 69t-64.5 199q0 137 66 212.5t191 75.5q77 0 129 -20q48 -18 81 -56q29 -33 52 -87q14 -34 40 -113l14 -43q22 -69 62 -103q48 -41 129 -41q60 0 89.5 14t29.5 46q0 26 -16 42
q-14 13 -43 23q-19 6 -64 16l-33 8q-70 17 -101.5 53.5t-31.5 96.5q0 87 63 129q53 35 141 35q90 0 139 -34q51 -37 58 -112l-114 -13q-4 36 -26 53t-64 17q-37 0 -59 -16.5t-22 -44.5t14.5 -43.5t50.5 -24.5l21 -4q66 -14 96 -25q51 -19 77 -51q31 -38 31 -100
q0 -82 -66 -122q-60 -36 -172 -36q-94 0 -159 27q-57 25 -94 73q-30 39 -51 101l-16 50q-25 82 -39 113q-22 51 -53 74q-34 26 -89 26q-59 0 -97 -43q-44 -50 -44 -148q0 -54 17 -94.5t48 -62.5t71 -22q31 0 61 10q24 9 46 24q17 10 30 23l11 10z" />
    <glyph glyph-name="lastfm-square" unicode="&#xf203;" horiz-adv-x="875" 
d="M781 788q39 0 66.5 -27.5t27.5 -66.5v-688q0 -39 -27.5 -66.5t-66.5 -27.5h-687q-39 0 -66.5 27.5t-27.5 66.5v688q0 39 27.5 66.5t66.5 27.5h687zM601 176q70 0 108 23q41 25 41 76q0 39 -20 63q-16 19 -47 31q-19 7 -60 16l-13 3q-23 5 -32 14.5t-9 27.5t13.5 28
t37.5 10q52 0 55 -44l72 9q-9 91 -123 91q-54 0 -87 -22q-40 -27 -40 -81q0 -37 19.5 -60t63.5 -33l19 -4q42 -10 56 -17q22 -12 22 -35q0 -20 -18.5 -29t-55.5 -9q-51 0 -81 26q-25 21 -39 65l-9 27q-21 65 -34 90q-21 41 -54 60q-37 22 -100 22q-78 0 -119.5 -47
t-41.5 -133q0 -82 40.5 -125t115.5 -43q28 0 53 6q20 5 37 13q13 6 23 13l7 6l-23 63l-12 -11q-15 -12 -32 -20q-24 -11 -49 -11q-37 0 -61 30.5t-24 81.5q0 61 28 93q24 26 61 26q34 0 56 -16q19 -15 33 -46q8 -20 24 -70l10 -32q19 -60 56 -89q47 -37 133 -37z" />
    <glyph glyph-name="ioxhost" unicode="&#xf208;" horiz-adv-x="1250" 
d="M1203 538q20 0 33.5 -13.5t13.5 -33t-13.5 -33.5t-33.5 -14h-103q9 -45 9 -94q0 -132 -66 -245q-64 -109 -173 -173q-113 -66 -245 -66q-99 0 -189 38q-87 37 -154 104.5t-104 154.5h-131q-20 0 -33.5 13.5t-13.5 33t14 33t33 13.5h103q-9 47 -9 94q0 132 66 245
q64 109 173 173q113 66 245 66q99 0 189 -38q87 -37 154 -104t104 -154h131zM1016 350q0 49 -12 94h-582q-19 0 -33 14t-14 33t14 33t33 14h546q-50 92 -141 147q-93 56 -202 56q-106 0 -197 -53q-89 -52 -141 -141q-53 -91 -53 -197q0 -49 12 -94h582q20 0 33.5 -13.5
t13.5 -33t-14 -33t-33 -13.5h-546q50 -93 141 -148q93 -56 202 -56q106 0 197 53q89 52 141 141q53 91 53 197zM422 397h406q20 0 33.5 -13.5t13.5 -33t-13.5 -33.5t-33.5 -14h-406q-19 0 -33 14t-14 33.5t14 33t33 13.5z" />
    <glyph glyph-name="angellist" unicode="&#xf209;" horiz-adv-x="875" 
d="M678 429q64 -16 89 -68q18 -39 18 -115q0 -112 -45.5 -202t-128.5 -141q-87 -53 -200 -53q-90 0 -167 44q-71 40 -112.5 107.5t-41.5 138.5q0 56 23 90q24 36 77 50l-3 9q-13 35 -13 49q0 23 14 47t36.5 40t44.5 16q13 0 39 -8l-1 2q-90 246 -90 314q0 45 22 72
q23 29 67 29q73 0 182 -325l4 -12l13 35q42 117 72 177q55 107 104 107q40 0 64 -28q22 -27 22 -68q0 -59 -89 -307zM609 639l-65 -183l67 -12l11 31q81 227 81 258q0 13 -5 21q-5 11 -17 11q-30 0 -71 -124zM278 756q0 -54 86 -282l3 -9q8 5 23 6q9 0 31 -2l15 -1l-68 196
q-22 63 -40 94q-16 26 -28 29q-10 2 -17 -10q-5 -10 -5 -21zM273 373q-11 0 -25 -15t-14 -26q0 -20 29.5 -67t63.5 -83q38 -41 57 -41q8 0 14.5 7.5t6.5 15.5q0 15 -21 65q-24 57 -51 95q-34 49 -60 49zM633 10q38 42 60 99q19 50 24 105q5 48 -2 86.5t-21 50.5
q-22 19 -77 33q-45 12 -105 18q-51 6 -88 6q-23 0 -30 -8q-4 -5 -4 -18q0 -51 86 -68q48 -10 136 -9h13q15 0 24 -13q7 -11 9 -29q-17 -17 -53 -30q-32 -11 -53 -25q-36 -27 -59 -61q-26 -40 -26 -79q0 -18 10 -50t10 -49l-4 -14q-43 3 -63 42q-16 30 -18 78q-7 -1 -23 -1
q5 -17 -3.5 -36.5t-27.5 -32.5t-43 -13q-37 0 -75 31t-52 69q-14 43 13 70q14 -17 34 -45q25 -33 35 -42q14 -13 31 -13q7 0 15 4.5t8 11.5q0 12 -22 47.5t-47 63.5q-27 32 -37 32q-18 0 -33.5 -16.5t-18.5 -44.5q-4 -33 11 -73q34 -82 99.5 -127t152.5 -45q130 0 214 95z
M441 256q2 -4 5 -13q9 -24 13 -36q22 24 40 37l-19 3q-26 5 -39 9z" />
    <glyph glyph-name="buysellads" unicode="&#xf20d;" horiz-adv-x="875" 
d="M438 556l83 -314h-167zM875 694v-688q0 -39 -27.5 -66.5t-66.5 -27.5h-687q-39 0 -66.5 27.5t-27.5 66.5v688q0 39 27.5 66.5t66.5 27.5h687q39 0 66.5 -27.5t27.5 -66.5zM748 58l-185 584h-251l-184 -584h177l218 179l47 -179h178z" />
    <glyph glyph-name="connectdevelop" unicode="&#xf20e;" horiz-adv-x="1125" 
d="M1075 379q10 -2 16.5 -10t6.5 -18.5t-6.5 -19t-17.5 -10.5l-107 -186q2 -6 2 -9q0 -11 -6.5 -19t-17.5 -10l-101 -177q2 -4 2 -8q0 -12 -9 -21t-21 -9t-22 10h-209q-4 -5 -10 -8t-12 -3t-12.5 3t-10.5 8h-209q-8 -11 -21 -11t-22 8.5t-9 21.5q0 4 2 10l-101 176
q-10 2 -16.5 10t-6.5 19q0 6 1 9l-108 186q-10 2 -16.5 10.5t-6.5 19t6.5 19t17.5 10.5l105 180l-1 3q0 9 5 16t13 11l109 190q-2 4 -2 9q0 13 9 21.5t22 8.5t22 -11h207q8 11 22.5 11t22.5 -11h208q9 11 22 11t22 -8.5t9 -21.5q0 -3 -2 -9l108 -188q12 0 20.5 -8.5
t8.5 -20.5q0 -9 -4 -14zM300 -30v148h-85zM300 133v99l-88 -92l3 -7h85zM300 255v182l-98 101q-5 -3 -15 -5l-102 -176q1 -2 1 -7t-1 -7l109 -189q1 0 5 -2l3 -1zM300 455v141l-86 -31l1 -2q0 -8 -5 -15zM300 613v116l-85 -147zM938 536l-1 1l-191 -198l124 -132l69 327z
M570 156l-22 -23h44zM569 178l155 161l-162 171l-155 -165zM580 167l33 -34h242l12 55l-132 140zM802 763l-229 -242l162 -171l191 198q-5 7 -5 15v1l-113 197q-2 0 -6 2zM784 768h-9l-324 -118l111 -117zM543 768h-203l99 -105l290 105h-147q-7 -9 -19 -9t-20 9zM316 757
v-139l107 39l-100 105l-5 -1zM316 602v-163l80 -82l155 164l-117 124zM316 421v-149l71 75zM316 249v-116h210l33 35l-161 168zM329 -68h3l179 186h-195v-176l2 -3q7 -2 11 -7zM583 -68h203l-178 186h-75l-179 -186h188q9 9 20.5 9t20.5 -9zM817 -45l34 163h-223l174 -180
l7 3zM842 -1l68 119h-42zM910 133q2 5 3 6l-33 36l-9 -42h39zM1040 343q-1 3 -1 8l1 8l-89 155l-68 -320l41 -43l7 3z" />
    <glyph glyph-name="dashcube" unicode="&#xf210;" horiz-adv-x="875" 
d="M638 647l200 203v-834q0 -48 -23.5 -86t-64.5 -59t-91 -21h-443q-50 0 -90.5 21t-64 59t-23.5 86v448q0 48 23.5 90.5t64.5 67.5t90 25h422zM301 37v-1h437l-100 103v241q0 26 -18.5 44.5t-44.5 18.5h-274q-26 0 -45 -18.5t-19 -44.5v-279q0 -26 19 -45t45 -19z" />
    <glyph glyph-name="forumbee" unicode="&#xf211;" horiz-adv-x="875" 
d="M11 245q-11 52 -11 101q0 118 59 220q58 98 157 156q102 60 220 60q47 0 96 -11q-181 -69 -317 -206.5t-204 -319.5zM779 615q-146 -43 -271 -132q-122 -89 -209.5 -213.5t-129.5 -271.5q-49 37 -88 96q42 145 128.5 268t208.5 210.5t267 130.5q51 -34 94 -88zM810 121
q36 -99 65 -214q-107 28 -209 65q-76 -47 -165 -61q63 118 156.5 213.5t209.5 158.5q-12 -86 -57 -162zM868 405q-166 -68 -293.5 -197.5t-196.5 -297.5q-58 8 -110 30q44 135 126.5 249.5t194.5 197.5q114 85 248 129q24 -55 31 -111z" />
    <glyph glyph-name="leanpub" unicode="&#xf212;" horiz-adv-x="1125" 
d="M755 632l29 -486l-21 1q-108 2 -200 -55q-91 55 -201 55q-63 0 -123 -15q-52 -12 -118 -40l61 505q85 35 180 35q61 0 110 -20t91 -63q41 41 88 61.5t104 21.5zM1112 -25q-72 0 -138 31q-107 48 -211 48q-58 0 -108 -19q-52 -20 -92 -60q-40 40 -91.5 59.5t-109.5 19.5
q-104 0 -211 -48q-67 -31 -135 -31h-2l83 682q57 32 124.5 50t133.5 18q125 0 208 -57q81 57 207 57q66 0 133.5 -18t124.5 -50zM1027 62l-67 548q-45 20 -96 31t-101 11q-58 0 -107 -18q-53 -20 -93 -58q-41 38 -92.5 57t-108.5 19q-50 0 -101 -11t-96 -31l-67 -548
q85 35 128 47q67 19 136 19q107 0 201 -58q92 58 200 58q69 0 136 -19q43 -12 128 -47z" />
    <glyph glyph-name="sellsy" unicode="&#xf213;" horiz-adv-x="1250" 
d="M1054 387q53 -13 95 -47.5t65.5 -83.5t23.5 -103q0 -65 -32.5 -120.5t-88 -88t-120.5 -32.5h-744q-65 0 -120.5 32.5t-88 88t-32.5 120.5q0 69 38 128.5t100 88.5q-6 23 -6 44q0 44 22 82t60 60t82 22q62 0 108 -40q18 72 64.5 129t113 89t141.5 32q88 0 165 -45
q74 -44 118 -118q45 -77 45 -165q0 -38 -9 -73zM390 66v216q0 13 -8.5 21.5t-20.5 8.5h-61q-12 0 -21 -8.5t-9 -21.5v-216q0 -12 9 -21t21 -9h61q12 0 20.5 9t8.5 21zM565 66v257q0 12 -9 20.5t-21 8.5h-60q-12 0 -21 -8.5t-9 -20.5v-257q0 -12 9 -21t21 -9h60q12 0 21 9
t9 21zM740 66v318q0 12 -9 20.5t-21 8.5h-60q-13 0 -21.5 -8.5t-8.5 -20.5v-318q0 -12 8.5 -21t21.5 -9h60q12 0 21 9t9 21zM910 66v438q0 13 -9 22t-21 9h-56q-12 0 -21 -9t-9 -22v-438q0 -12 9 -21t21 -9h56q12 0 21 9t9 21z" />
    <glyph glyph-name="shirtsinbulk" unicode="&#xf214;" horiz-adv-x="875" 
d="M195 49l9 19l60 -26l-9 -19zM272 15l9 19l60 -26l-9 -20zM608 42l60 26l9 -19l-60 -26zM350 -19l8 19l60 -27l-9 -19zM118 83l9 19l59 -27l-8 -18zM531 8l60 26l8 -19l-59 -27zM454 -27l60 27l9 -19l-60 -27zM685 75l60 27l9 -19l-60 -26zM332 759v-20h-65v20h65z
M240 759v-20h-66v20h66zM148 759v-20h-65v20h65zM424 759v-20h-65v20h65zM608 759v-20h-65v20h65zM701 759v-20h-66v20h66zM516 759v-20h-65v20h65zM792 759v-20h-65v20h65zM103 164v-65h-21v65h21zM240 586v-21h-66v21h66zM103 565v-45h-21v66h66v-21h-45zM433 119
q-48 0 -89 24t-65 64.5t-24 89t24 89.5t65 65t89.5 24t89 -24t64.5 -65t24 -89.5t-24 -89t-64.5 -64.5t-89.5 -24zM339 336q0 -23 14 -35q12 -10 34 -13q14 -2 42 -3q32 0 43 -3q18 -5 18 -21t-25 -23q-16 -4 -38.5 -4t-39.5 6q-23 7 -31 23h-1l-18 -36q21 -13 43 -18.5
t49 -5.5q38 0 64 12q36 16 36 49q0 26 -16 40q-13 11 -38 15q-14 2 -45 2q-28 0 -38 2q-16 4 -16 15q0 17 22 24q15 5 35.5 5t38.5 -5q23 -8 31 -21h2l17 33l-1 1q-28 12 -41 16q-22 7 -44 7q-37 0 -63 -13q-34 -16 -34 -49zM103 502v-66h-21v66h21zM772 99v65h21v-65h-21z
M103 249v-66h-21v66h21zM0 843h875v-793l-442 -193l-433 193v793zM818 87v0v527h-761v-527l377 -168zM818 671v0v115h-761v-115h761zM103 417v-65h-21v65h21zM103 333v-66h-21v66h21zM332 586v-21h-65v21h65zM772 267v66h21v-66h-21zM772 352v65h21v-65h-21zM424 586v-21
h-65v21h65zM772 436v65h21v-65h-21zM772 183v65h21v-65h-21zM516 586v-21h-65v21h65zM608 586v-21h-65v21h65zM772 520v45h-44v21h65v-66h-21zM701 586v-21h-66v21h66z" />
    <glyph glyph-name="simplybuilt" unicode="&#xf215;" 
d="M940 725q22 0 37 -15t15 -36v-648q0 -21 -15 -36t-37 -15h-880q-22 0 -37 15t-15 36v648q0 21 15 36t37 15h207q22 0 37 -15t15 -36v-78h362v78q0 21 15.5 36t36.5 15h207zM293 155q35 0 65 17.5t47.5 47.5t17.5 65t-17.5 65t-47.5 47.5t-65 17.5t-65 -17.5t-47.5 -47.5
t-17.5 -65t17.5 -65t47.5 -47.5t65 -17.5zM707 155q35 0 65 17.5t47.5 47.5t17.5 65t-17.5 65t-47.5 47.5t-65 17.5t-65 -17.5t-47.5 -47.5t-17.5 -65t17.5 -65t47.5 -47.5t65 -17.5z" />
    </font>
</defs>
</svg>
